# Blender v2.93.5 OBJ File: 'ESU_altafidelidad_Entorno.blend'
# www.blender.org
mtllib BtnArrowDown.mtl
v 70.008720 607.223511 -125.307915
v 70.483116 607.694214 -125.302834
v 70.113914 607.234924 -125.306572
v 70.213921 607.269531 -125.305359
v 70.303734 607.325439 -125.304321
v 70.378853 607.399963 -125.303513
v 70.435501 607.489319 -125.302986
v 70.470848 607.589111 -125.302757
v 65.126381 607.715454 -125.372345
v 65.596992 607.241028 -125.365158
v 65.137810 607.610229 -125.371956
v 65.172356 607.510254 -125.371277
v 65.228287 607.420410 -125.370346
v 65.302803 607.345276 -125.369209
v 65.392166 607.288635 -125.367920
v 65.491898 607.253296 -125.366547
v 70.498711 607.691406 -126.505829
v 70.024323 607.220764 -126.510902
v 70.486443 607.586304 -126.505745
v 70.451103 607.486572 -126.505981
v 70.394447 607.397217 -126.506508
v 70.319336 607.322693 -126.507309
v 70.229523 607.266724 -126.508347
v 70.129509 607.232178 -126.509567
v 65.612595 607.238281 -126.568146
v 65.141975 607.712708 -126.575340
v 65.507500 607.250549 -126.569542
v 65.407768 607.285889 -126.570915
v 65.318405 607.342529 -126.572205
v 65.243889 607.417664 -126.573341
v 65.187950 607.507507 -126.574272
v 65.153404 607.607483 -126.574951
v 70.500755 612.106262 -125.312706
v 70.030136 612.580688 -125.319901
v 70.489326 612.211487 -125.313095
v 70.454781 612.311462 -125.313774
v 70.398842 612.401306 -125.314705
v 70.324326 612.476440 -125.315842
v 70.234962 612.533081 -125.317131
v 70.135231 612.568420 -125.318504
v 65.618408 612.598206 -125.377144
v 65.144020 612.127563 -125.382217
v 65.513222 612.586792 -125.378479
v 65.413208 612.552246 -125.379700
v 65.323395 612.496277 -125.380737
v 65.248283 612.421753 -125.381538
v 65.191628 612.332397 -125.382065
v 65.156288 612.232666 -125.382301
v 70.045738 612.577942 -126.522888
v 70.516350 612.103516 -126.515701
v 70.150833 612.565674 -126.521500
v 70.250565 612.530334 -126.520126
v 70.339928 612.473694 -126.518837
v 70.414444 612.398560 -126.517700
v 70.470375 612.308716 -126.516769
v 70.504921 612.208740 -126.516090
v 65.159615 612.124756 -126.585213
v 65.634010 612.595459 -126.580132
v 65.171883 612.229858 -126.585289
v 65.207230 612.329651 -126.585060
v 65.263878 612.419006 -126.584534
v 65.338997 612.493530 -126.583725
v 65.428810 612.549438 -126.582687
v 65.528816 612.584045 -126.581474
vt 0.375000 0.772052
vt 0.375553 0.767145
vt 0.377184 0.762484
vt 0.379811 0.758303
vt 0.383303 0.754811
vt 0.387484 0.752184
vt 0.392145 0.750553
vt 0.397052 0.750000
vt 0.602948 0.750000
vt 0.607855 0.750553
vt 0.612516 0.752184
vt 0.616697 0.754811
vt 0.620189 0.758303
vt 0.622816 0.762484
vt 0.624447 0.767145
vt 0.625000 0.772052
vt 0.625000 0.977948
vt 0.624447 0.982855
vt 0.622816 0.987516
vt 0.620189 0.991697
vt 0.616697 0.995189
vt 0.612516 0.997816
vt 0.607855 0.999447
vt 0.602948 1.000000
vt 0.397052 1.000000
vt 0.392145 0.999447
vt 0.387484 0.997816
vt 0.383303 0.995189
vt 0.379811 0.991697
vt 0.377184 0.987516
vt 0.375553 0.982855
vt 0.375000 0.977948
vt 0.397052 0.500000
vt 0.602948 0.500000
vt 0.647052 0.500000
vt 0.852948 0.500000
vt 0.852948 0.750000
vt 0.647052 0.750000
vt 0.397052 0.000000
vt 0.602948 0.000000
vt 0.602948 0.250000
vt 0.397052 0.250000
vt 0.375000 0.272052
vt 0.375553 0.267145
vt 0.377184 0.262484
vt 0.379811 0.258303
vt 0.383303 0.254811
vt 0.387484 0.252184
vt 0.392145 0.250553
vt 0.607855 0.250553
vt 0.612516 0.252184
vt 0.616697 0.254811
vt 0.620189 0.258303
vt 0.622816 0.262484
vt 0.624447 0.267145
vt 0.625000 0.272052
vt 0.625000 0.477948
vt 0.624447 0.482855
vt 0.622816 0.487516
vt 0.620189 0.491697
vt 0.616697 0.495189
vt 0.612516 0.497816
vt 0.607855 0.499447
vt 0.392145 0.499447
vt 0.387484 0.497816
vt 0.383303 0.495189
vt 0.379811 0.491697
vt 0.377184 0.487516
vt 0.375553 0.482855
vt 0.375000 0.477948
vt 0.147052 0.500000
vt 0.147052 0.750000
vt 0.142145 0.750000
vt 0.142145 0.500000
vt 0.137484 0.750000
vt 0.137484 0.500000
vt 0.133303 0.750000
vt 0.133303 0.500000
vt 0.125000 0.750000
vt 0.125000 0.500000
vt 0.383303 0.250000
vt 0.383303 0.000000
vt 0.387484 0.000000
vt 0.387484 0.250000
vt 0.392145 0.000000
vt 0.392145 0.250000
vt 0.857855 0.500000
vt 0.857855 0.750000
vt 0.862516 0.500000
vt 0.862516 0.750000
vt 0.866697 0.500000
vt 0.866697 0.750000
vt 0.625000 0.000000
vt 0.625000 0.250000
vt 0.616697 0.250000
vt 0.616697 0.000000
vt 0.612516 0.250000
vt 0.612516 0.000000
vt 0.607855 0.250000
vt 0.607855 0.000000
vt 0.352948 0.750000
vt 0.352948 0.500000
vt 0.357855 0.500000
vt 0.357855 0.750000
vt 0.362516 0.500000
vt 0.362516 0.750000
vt 0.366697 0.500000
vt 0.366697 0.750000
vt 0.383303 0.500000
vt 0.383303 0.750000
vt 0.387484 0.500000
vt 0.387484 0.750000
vt 0.392145 0.500000
vt 0.392145 0.750000
vt 0.642145 0.750000
vt 0.642145 0.500000
vt 0.637484 0.750000
vt 0.637484 0.500000
vt 0.633303 0.750000
vt 0.633303 0.500000
vt 0.616697 0.750000
vt 0.616697 0.500000
vt 0.612516 0.750000
vt 0.612516 0.500000
vt 0.607855 0.750000
vt 0.607855 0.500000
vn -0.0130 0.0023 0.9999
vn 0.0040 1.0000 -0.0023
vn -0.9999 0.0040 -0.0130
vn -0.0040 -1.0000 0.0023
vn 0.0130 -0.0023 -0.9999
vn 0.9932 -0.1160 0.0132
vn 0.9425 -0.3340 0.0130
vn 0.8445 -0.5354 0.0122
vn 0.7042 -0.7099 0.0107
vn 0.5286 -0.8488 0.0088
vn 0.3267 -0.9451 0.0064
vn 0.1078 -0.9942 0.0037
vn -0.9941 -0.1080 -0.0126
vn -0.9451 -0.3266 -0.0115
vn -0.8489 -0.5285 -0.0098
vn -0.7099 -0.7043 -0.0076
vn -0.5353 -0.8446 -0.0050
vn -0.3340 -0.9426 -0.0021
vn -0.1159 -0.9933 0.0008
vn 0.9941 0.1080 0.0126
vn 0.9451 0.3266 0.0115
vn 0.8489 0.5285 0.0098
vn 0.7099 0.7043 0.0076
vn 0.5353 0.8446 0.0050
vn 0.3340 0.9426 0.0021
vn 0.1159 0.9933 -0.0008
vn -0.9932 0.1160 -0.0131
vn -0.9425 0.3340 -0.0130
vn -0.8445 0.5355 -0.0122
vn -0.7042 0.7099 -0.0107
vn -0.5286 0.8488 -0.0088
vn -0.3267 0.9451 -0.0064
vn -0.1078 0.9942 -0.0037
vn 0.9999 -0.0040 0.0130
usemtl Material.006
s off
f 33/1/1 35/2/1 36/3/1 37/4/1 38/5/1 39/6/1 40/7/1 34/8/1 41/9/1 43/10/1 44/11/1 45/12/1 46/13/1 47/14/1 48/15/1 42/16/1 9/17/1 11/18/1 12/19/1 13/20/1 14/21/1 15/22/1 16/23/1 10/24/1 1/25/1 3/26/1 4/27/1 5/28/1 6/29/1 7/30/1 8/31/1 2/32/1
f 49/33/2 58/34/2 41/9/2 34/8/2
f 57/35/3 26/36/3 9/37/3 42/38/3
f 1/39/4 10/40/4 25/41/4 18/42/4
f 17/43/5 19/44/5 20/45/5 21/46/5 22/47/5 23/48/5 24/49/5 18/42/5 25/41/5 27/50/5 28/51/5 29/52/5 30/53/5 31/54/5 32/55/5 26/56/5 57/57/5 59/58/5 60/59/5 61/60/5 62/61/5 63/62/5 64/63/5 58/34/5 49/33/5 51/64/5 52/65/5 53/66/5 54/67/5 55/68/5 56/69/5 50/70/5
f 17/71/6 2/72/6 8/73/6 19/74/6
f 19/74/7 8/73/7 7/75/7 20/76/7
f 20/76/8 7/75/8 6/77/8 21/78/8
f 21/78/9 6/77/9 5/79/9 22/80/9
f 22/81/10 5/82/10 4/83/10 23/84/10
f 23/84/11 4/83/11 3/85/11 24/86/11
f 24/86/12 3/85/12 1/39/12 18/42/12
f 9/37/13 26/36/13 32/87/13 11/88/13
f 11/88/14 32/87/14 31/89/14 12/90/14
f 12/90/15 31/89/15 30/91/15 13/92/15
f 13/93/16 30/94/16 29/95/16 14/96/16
f 14/96/17 29/95/17 28/97/17 15/98/17
f 15/98/18 28/97/18 27/99/18 16/100/18
f 16/100/19 27/99/19 25/41/19 10/40/19
f 33/101/20 50/102/20 56/103/20 35/104/20
f 35/104/21 56/103/21 55/105/21 36/106/21
f 36/106/22 55/105/22 54/107/22 37/108/22
f 37/108/23 54/107/23 53/109/23 38/110/23
f 38/110/24 53/109/24 52/111/24 39/112/24
f 39/112/25 52/111/25 51/113/25 40/114/25
f 40/114/26 51/113/26 49/33/26 34/8/26
f 57/35/27 42/38/27 48/115/27 59/116/27
f 59/116/28 48/115/28 47/117/28 60/118/28
f 60/118/29 47/117/29 46/119/29 61/120/29
f 61/120/30 46/119/30 45/121/30 62/122/30
f 62/122/31 45/121/31 44/123/31 63/124/31
f 63/124/32 44/123/32 43/125/32 64/126/32
f 64/126/33 43/125/33 41/9/33 58/34/33
f 17/71/34 50/102/34 33/101/34 2/72/34
