# Blender v2.93.5 OBJ File: 'ESU_altafidelidad_Entorno.blend'
# www.blender.org
mtllib BtnBlendTres.mtl
v 88.100952 612.508911 -125.085335
v 87.626564 612.038269 -125.090408
v 87.995766 612.497498 -125.086670
v 87.895752 612.462952 -125.087891
v 87.805939 612.406982 -125.088928
v 87.730827 612.332458 -125.089729
v 87.674171 612.243103 -125.090256
v 87.638832 612.143372 -125.090492
v 92.983299 612.016968 -125.020897
v 92.512680 612.491394 -125.028091
v 92.971870 612.122192 -125.021286
v 92.937325 612.222168 -125.021965
v 92.881386 612.312012 -125.022896
v 92.806870 612.387146 -125.024033
v 92.717506 612.443787 -125.025322
v 92.617775 612.479126 -125.026695
v 87.642159 612.035461 -126.293404
v 88.116554 612.506165 -126.288322
v 87.654427 612.140564 -126.293480
v 87.689774 612.240356 -126.293251
v 87.746422 612.329712 -126.292725
v 87.821541 612.404236 -126.291916
v 87.911354 612.460144 -126.290878
v 88.011360 612.494751 -126.289665
v 92.528282 612.488647 -126.231079
v 92.998894 612.014221 -126.223892
v 92.633377 612.476379 -126.229691
v 92.733109 612.441040 -126.228317
v 92.822472 612.384399 -126.227028
v 92.896988 612.309265 -126.225891
v 92.952919 612.219421 -126.224960
v 92.987473 612.119446 -126.224281
v 87.608925 607.626160 -125.080536
v 88.079536 607.151733 -125.073349
v 87.620346 607.520935 -125.080147
v 87.654900 607.420959 -125.079468
v 87.710831 607.331116 -125.078537
v 87.785347 607.255981 -125.077400
v 87.874710 607.199341 -125.076111
v 87.974442 607.164001 -125.074738
v 92.491264 607.134216 -125.016106
v 92.965660 607.604919 -125.011024
v 92.596458 607.145630 -125.014763
v 92.696465 607.180237 -125.013550
v 92.786278 607.236145 -125.012512
v 92.861397 607.310669 -125.011703
v 92.918045 607.400024 -125.011177
v 92.953392 607.499817 -125.010948
v 88.095139 607.148987 -126.276337
v 87.624519 607.623413 -126.283531
v 87.990044 607.161255 -126.277733
v 87.890312 607.196594 -126.279106
v 87.800949 607.253235 -126.280396
v 87.726433 607.328369 -126.281532
v 87.670494 607.418213 -126.282463
v 87.635948 607.518188 -126.283142
v 92.981255 607.602112 -126.214020
v 92.506866 607.131470 -126.219093
v 92.968987 607.497009 -126.213936
v 92.933647 607.397278 -126.214172
v 92.876991 607.307922 -126.214699
v 92.801880 607.233398 -126.215500
v 92.712067 607.177429 -126.216537
v 92.612053 607.142883 -126.217758
vt 0.375000 0.772052
vt 0.375553 0.767145
vt 0.377184 0.762484
vt 0.379811 0.758303
vt 0.383303 0.754811
vt 0.387484 0.752184
vt 0.392145 0.750553
vt 0.397052 0.750000
vt 0.602948 0.750000
vt 0.607855 0.750553
vt 0.612516 0.752184
vt 0.616697 0.754811
vt 0.620189 0.758303
vt 0.622816 0.762484
vt 0.624447 0.767145
vt 0.625000 0.772052
vt 0.625000 0.977948
vt 0.624447 0.982855
vt 0.622816 0.987516
vt 0.620189 0.991697
vt 0.616697 0.995189
vt 0.612516 0.997816
vt 0.607855 0.999447
vt 0.602948 1.000000
vt 0.397052 1.000000
vt 0.392145 0.999447
vt 0.387484 0.997816
vt 0.383303 0.995189
vt 0.379811 0.991697
vt 0.377184 0.987516
vt 0.375553 0.982855
vt 0.375000 0.977948
vt 0.397052 0.500000
vt 0.602948 0.500000
vt 0.647052 0.500000
vt 0.852948 0.500000
vt 0.852948 0.750000
vt 0.647052 0.750000
vt 0.397052 0.000000
vt 0.602948 0.000000
vt 0.602948 0.250000
vt 0.397052 0.250000
vt 0.375000 0.272052
vt 0.375553 0.267145
vt 0.377184 0.262484
vt 0.379811 0.258303
vt 0.383303 0.254811
vt 0.387484 0.252184
vt 0.392145 0.250553
vt 0.607855 0.250553
vt 0.612516 0.252184
vt 0.616697 0.254811
vt 0.620189 0.258303
vt 0.622816 0.262484
vt 0.624447 0.267145
vt 0.625000 0.272052
vt 0.625000 0.477948
vt 0.624447 0.482855
vt 0.622816 0.487516
vt 0.620189 0.491697
vt 0.616697 0.495189
vt 0.612516 0.497816
vt 0.607855 0.499447
vt 0.392145 0.499447
vt 0.387484 0.497816
vt 0.383303 0.495189
vt 0.379811 0.491697
vt 0.377184 0.487516
vt 0.375553 0.482855
vt 0.375000 0.477948
vt 0.147052 0.500000
vt 0.147052 0.750000
vt 0.142145 0.750000
vt 0.142145 0.500000
vt 0.137484 0.750000
vt 0.137484 0.500000
vt 0.133303 0.750000
vt 0.133303 0.500000
vt 0.125000 0.750000
vt 0.125000 0.500000
vt 0.383303 0.250000
vt 0.383303 0.000000
vt 0.387484 0.000000
vt 0.387484 0.250000
vt 0.392145 0.000000
vt 0.392145 0.250000
vt 0.857855 0.500000
vt 0.857855 0.750000
vt 0.862516 0.500000
vt 0.862516 0.750000
vt 0.866697 0.500000
vt 0.866697 0.750000
vt 0.625000 0.000000
vt 0.625000 0.250000
vt 0.616697 0.250000
vt 0.616697 0.000000
vt 0.612516 0.250000
vt 0.612516 0.000000
vt 0.607855 0.250000
vt 0.607855 0.000000
vt 0.352948 0.750000
vt 0.352948 0.500000
vt 0.357855 0.500000
vt 0.357855 0.750000
vt 0.362516 0.500000
vt 0.362516 0.750000
vt 0.366697 0.500000
vt 0.366697 0.750000
vt 0.383303 0.500000
vt 0.383303 0.750000
vt 0.387484 0.500000
vt 0.387484 0.750000
vt 0.392145 0.500000
vt 0.392145 0.750000
vt 0.642145 0.750000
vt 0.642145 0.500000
vt 0.637484 0.750000
vt 0.637484 0.500000
vt 0.633303 0.750000
vt 0.633303 0.500000
vt 0.616697 0.750000
vt 0.616697 0.500000
vt 0.612516 0.750000
vt 0.612516 0.500000
vt 0.607855 0.750000
vt 0.607855 0.500000
vn -0.0130 0.0023 0.9999
vn -0.0040 -1.0000 0.0022
vn 0.9999 -0.0040 0.0130
vn 0.0040 1.0000 -0.0022
vn 0.0130 -0.0023 -0.9999
vn -0.9932 0.1160 -0.0131
vn -0.9425 0.3340 -0.0130
vn -0.8444 0.5355 -0.0121
vn -0.7043 0.7099 -0.0108
vn -0.5286 0.8488 -0.0088
vn -0.3267 0.9451 -0.0064
vn -0.1078 0.9942 -0.0036
vn 0.9941 0.1080 0.0126
vn 0.9451 0.3267 0.0115
vn 0.8489 0.5285 0.0098
vn 0.7099 0.7043 0.0075
vn 0.5353 0.8446 0.0050
vn 0.3340 0.9426 0.0022
vn 0.1159 0.9933 -0.0007
vn -0.9941 -0.1080 -0.0126
vn -0.9451 -0.3267 -0.0115
vn -0.8488 -0.5286 -0.0098
vn -0.7099 -0.7043 -0.0076
vn -0.5353 -0.8446 -0.0050
vn -0.3340 -0.9426 -0.0022
vn -0.1159 -0.9933 0.0007
vn 0.9932 -0.1160 0.0131
vn 0.9425 -0.3339 0.0130
vn 0.8445 -0.5354 0.0122
vn 0.7042 -0.7099 0.0108
vn 0.5286 -0.8488 0.0088
vn 0.3267 -0.9451 0.0064
vn 0.1078 -0.9942 0.0036
vn -0.9999 0.0040 -0.0130
usemtl Material.010
s off
f 33/1/1 35/2/1 36/3/1 37/4/1 38/5/1 39/6/1 40/7/1 34/8/1 41/9/1 43/10/1 44/11/1 45/12/1 46/13/1 47/14/1 48/15/1 42/16/1 9/17/1 11/18/1 12/19/1 13/20/1 14/21/1 15/22/1 16/23/1 10/24/1 1/25/1 3/26/1 4/27/1 5/28/1 6/29/1 7/30/1 8/31/1 2/32/1
f 49/33/2 58/34/2 41/9/2 34/8/2
f 57/35/3 26/36/3 9/37/3 42/38/3
f 1/39/4 10/40/4 25/41/4 18/42/4
f 17/43/5 19/44/5 20/45/5 21/46/5 22/47/5 23/48/5 24/49/5 18/42/5 25/41/5 27/50/5 28/51/5 29/52/5 30/53/5 31/54/5 32/55/5 26/56/5 57/57/5 59/58/5 60/59/5 61/60/5 62/61/5 63/62/5 64/63/5 58/34/5 49/33/5 51/64/5 52/65/5 53/66/5 54/67/5 55/68/5 56/69/5 50/70/5
f 17/71/6 2/72/6 8/73/6 19/74/6
f 19/74/7 8/73/7 7/75/7 20/76/7
f 20/76/8 7/75/8 6/77/8 21/78/8
f 21/78/9 6/77/9 5/79/9 22/80/9
f 22/81/10 5/82/10 4/83/10 23/84/10
f 23/84/11 4/83/11 3/85/11 24/86/11
f 24/86/12 3/85/12 1/39/12 18/42/12
f 9/37/13 26/36/13 32/87/13 11/88/13
f 11/88/14 32/87/14 31/89/14 12/90/14
f 12/90/15 31/89/15 30/91/15 13/92/15
f 13/93/16 30/94/16 29/95/16 14/96/16
f 14/96/17 29/95/17 28/97/17 15/98/17
f 15/98/18 28/97/18 27/99/18 16/100/18
f 16/100/19 27/99/19 25/41/19 10/40/19
f 33/101/20 50/102/20 56/103/20 35/104/20
f 35/104/21 56/103/21 55/105/21 36/106/21
f 36/106/22 55/105/22 54/107/22 37/108/22
f 37/108/23 54/107/23 53/109/23 38/110/23
f 38/110/24 53/109/24 52/111/24 39/112/24
f 39/112/25 52/111/25 51/113/25 40/114/25
f 40/114/26 51/113/26 49/33/26 34/8/26
f 57/35/27 42/38/27 48/115/27 59/116/27
f 59/116/28 48/115/28 47/117/28 60/118/28
f 60/118/29 47/117/29 46/119/29 61/120/29
f 61/120/30 46/119/30 45/121/30 62/122/30
f 62/122/31 45/121/31 44/123/31 63/124/31
f 63/124/32 44/123/32 43/125/32 64/126/32
f 64/126/33 43/125/33 41/9/33 58/34/33
f 17/71/34 50/102/34 33/101/34 2/72/34
