# Blender v2.93.5 OBJ File: 'ESU_altafidelidad_Entorno.blend'
# www.blender.org
mtllib BtnBlendDos.mtl
v 81.683838 612.534424 -125.168663
v 81.209450 612.063782 -125.173737
v 81.578651 612.523010 -125.169998
v 81.478638 612.488464 -125.171219
v 81.388824 612.432495 -125.172256
v 81.313713 612.357971 -125.173058
v 81.257057 612.268616 -125.173584
v 81.221718 612.168884 -125.173820
v 86.566185 612.042480 -125.104225
v 86.095566 612.516907 -125.111420
v 86.554756 612.147705 -125.104614
v 86.520210 612.247681 -125.105293
v 86.464272 612.337524 -125.106224
v 86.389755 612.412659 -125.107361
v 86.300392 612.469299 -125.108650
v 86.200661 612.504639 -125.110023
v 81.225044 612.060974 -126.376732
v 81.699440 612.531677 -126.371651
v 81.237312 612.166077 -126.376808
v 81.272659 612.265869 -126.376579
v 81.329308 612.355225 -126.376053
v 81.404427 612.429749 -126.375244
v 81.494240 612.485657 -126.374207
v 81.594246 612.520264 -126.372993
v 86.111168 612.514160 -126.314407
v 86.581779 612.039734 -126.307220
v 86.216263 612.501892 -126.313019
v 86.315994 612.466553 -126.311646
v 86.405357 612.409912 -126.310356
v 86.479874 612.334778 -126.309219
v 86.535805 612.244934 -126.308289
v 86.570358 612.144958 -126.307610
v 81.191811 607.651672 -125.163864
v 81.662422 607.177246 -125.156677
v 81.203232 607.546448 -125.163475
v 81.237785 607.446472 -125.162796
v 81.293716 607.356628 -125.161865
v 81.368233 607.281494 -125.160728
v 81.457596 607.224854 -125.159439
v 81.557327 607.189514 -125.158066
v 86.074150 607.159729 -125.099434
v 86.548546 607.630432 -125.094353
v 86.179344 607.171143 -125.098091
v 86.279350 607.205750 -125.096878
v 86.369164 607.261658 -125.095840
v 86.444283 607.336182 -125.095032
v 86.500931 607.425537 -125.094505
v 86.536278 607.525330 -125.094276
v 81.678024 607.174500 -126.359665
v 81.207405 607.648926 -126.366859
v 81.572929 607.186768 -126.361061
v 81.473198 607.222107 -126.362434
v 81.383835 607.278748 -126.363724
v 81.309319 607.353882 -126.364861
v 81.253380 607.443726 -126.365791
v 81.218834 607.543701 -126.366470
v 86.564140 607.627625 -126.297348
v 86.089752 607.156982 -126.302422
v 86.551872 607.522522 -126.297264
v 86.516533 607.422791 -126.297501
v 86.459877 607.333435 -126.298027
v 86.384766 607.258911 -126.298828
v 86.294952 607.202942 -126.299866
v 86.194939 607.168396 -126.301086
vt 0.375000 0.772052
vt 0.375553 0.767145
vt 0.377184 0.762484
vt 0.379811 0.758303
vt 0.383303 0.754811
vt 0.387484 0.752184
vt 0.392145 0.750553
vt 0.397052 0.750000
vt 0.602948 0.750000
vt 0.607855 0.750553
vt 0.612516 0.752184
vt 0.616697 0.754811
vt 0.620189 0.758303
vt 0.622816 0.762484
vt 0.624447 0.767145
vt 0.625000 0.772052
vt 0.625000 0.977948
vt 0.624447 0.982855
vt 0.622816 0.987516
vt 0.620189 0.991697
vt 0.616697 0.995189
vt 0.612516 0.997816
vt 0.607855 0.999447
vt 0.602948 1.000000
vt 0.397052 1.000000
vt 0.392145 0.999447
vt 0.387484 0.997816
vt 0.383303 0.995189
vt 0.379811 0.991697
vt 0.377184 0.987516
vt 0.375553 0.982855
vt 0.375000 0.977948
vt 0.397052 0.500000
vt 0.602948 0.500000
vt 0.647052 0.500000
vt 0.852948 0.500000
vt 0.852948 0.750000
vt 0.647052 0.750000
vt 0.397052 0.000000
vt 0.602948 0.000000
vt 0.602948 0.250000
vt 0.397052 0.250000
vt 0.375000 0.272052
vt 0.375553 0.267145
vt 0.377184 0.262484
vt 0.379811 0.258303
vt 0.383303 0.254811
vt 0.387484 0.252184
vt 0.392145 0.250553
vt 0.607855 0.250553
vt 0.612516 0.252184
vt 0.616697 0.254811
vt 0.620189 0.258303
vt 0.622816 0.262484
vt 0.624447 0.267145
vt 0.625000 0.272052
vt 0.625000 0.477948
vt 0.624447 0.482855
vt 0.622816 0.487516
vt 0.620189 0.491697
vt 0.616697 0.495189
vt 0.612516 0.497816
vt 0.607855 0.499447
vt 0.392145 0.499447
vt 0.387484 0.497816
vt 0.383303 0.495189
vt 0.379811 0.491697
vt 0.377184 0.487516
vt 0.375553 0.482855
vt 0.375000 0.477948
vt 0.147052 0.500000
vt 0.147052 0.750000
vt 0.142145 0.750000
vt 0.142145 0.500000
vt 0.137484 0.750000
vt 0.137484 0.500000
vt 0.133303 0.750000
vt 0.133303 0.500000
vt 0.125000 0.750000
vt 0.125000 0.500000
vt 0.383303 0.250000
vt 0.383303 0.000000
vt 0.387484 0.000000
vt 0.387484 0.250000
vt 0.392145 0.000000
vt 0.392145 0.250000
vt 0.857855 0.500000
vt 0.857855 0.750000
vt 0.862516 0.500000
vt 0.862516 0.750000
vt 0.866697 0.500000
vt 0.866697 0.750000
vt 0.625000 0.000000
vt 0.625000 0.250000
vt 0.616697 0.250000
vt 0.616697 0.000000
vt 0.612516 0.250000
vt 0.612516 0.000000
vt 0.607855 0.250000
vt 0.607855 0.000000
vt 0.352948 0.750000
vt 0.352948 0.500000
vt 0.357855 0.500000
vt 0.357855 0.750000
vt 0.362516 0.500000
vt 0.362516 0.750000
vt 0.366697 0.500000
vt 0.366697 0.750000
vt 0.383303 0.500000
vt 0.383303 0.750000
vt 0.387484 0.500000
vt 0.387484 0.750000
vt 0.392145 0.500000
vt 0.392145 0.750000
vt 0.642145 0.750000
vt 0.642145 0.500000
vt 0.637484 0.750000
vt 0.637484 0.500000
vt 0.633303 0.750000
vt 0.633303 0.500000
vt 0.616697 0.750000
vt 0.616697 0.500000
vt 0.612516 0.750000
vt 0.612516 0.500000
vt 0.607855 0.750000
vt 0.607855 0.500000
vn -0.0130 0.0023 0.9999
vn -0.0040 -1.0000 0.0022
vn 0.9999 -0.0040 0.0130
vn 0.0040 1.0000 -0.0022
vn 0.0130 -0.0023 -0.9999
vn -0.9932 0.1159 -0.0131
vn -0.9425 0.3340 -0.0130
vn -0.8445 0.5354 -0.0122
vn -0.7042 0.7099 -0.0108
vn -0.5286 0.8488 -0.0088
vn -0.3267 0.9451 -0.0064
vn -0.1078 0.9942 -0.0036
vn 0.9941 0.1079 0.0126
vn 0.9451 0.3267 0.0115
vn 0.8489 0.5285 0.0098
vn 0.7099 0.7043 0.0076
vn 0.5353 0.8446 0.0050
vn 0.3340 0.9426 0.0022
vn 0.1159 0.9933 -0.0007
vn -0.9941 -0.1080 -0.0126
vn -0.9451 -0.3267 -0.0115
vn -0.8489 -0.5285 -0.0098
vn -0.7099 -0.7043 -0.0076
vn -0.5353 -0.8446 -0.0050
vn -0.3340 -0.9426 -0.0022
vn -0.1160 -0.9933 0.0007
vn 0.9932 -0.1159 0.0131
vn 0.9425 -0.3340 0.0130
vn 0.8445 -0.5355 0.0122
vn 0.7043 -0.7099 0.0108
vn 0.5286 -0.8488 0.0088
vn 0.3267 -0.9451 0.0064
vn 0.1078 -0.9942 0.0036
vn -0.9999 0.0040 -0.0130
usemtl Material.009
s off
f 33/1/1 35/2/1 36/3/1 37/4/1 38/5/1 39/6/1 40/7/1 34/8/1 41/9/1 43/10/1 44/11/1 45/12/1 46/13/1 47/14/1 48/15/1 42/16/1 9/17/1 11/18/1 12/19/1 13/20/1 14/21/1 15/22/1 16/23/1 10/24/1 1/25/1 3/26/1 4/27/1 5/28/1 6/29/1 7/30/1 8/31/1 2/32/1
f 49/33/2 58/34/2 41/9/2 34/8/2
f 57/35/3 26/36/3 9/37/3 42/38/3
f 1/39/4 10/40/4 25/41/4 18/42/4
f 17/43/5 19/44/5 20/45/5 21/46/5 22/47/5 23/48/5 24/49/5 18/42/5 25/41/5 27/50/5 28/51/5 29/52/5 30/53/5 31/54/5 32/55/5 26/56/5 57/57/5 59/58/5 60/59/5 61/60/5 62/61/5 63/62/5 64/63/5 58/34/5 49/33/5 51/64/5 52/65/5 53/66/5 54/67/5 55/68/5 56/69/5 50/70/5
f 17/71/6 2/72/6 8/73/6 19/74/6
f 19/74/7 8/73/7 7/75/7 20/76/7
f 20/76/8 7/75/8 6/77/8 21/78/8
f 21/78/9 6/77/9 5/79/9 22/80/9
f 22/81/10 5/82/10 4/83/10 23/84/10
f 23/84/11 4/83/11 3/85/11 24/86/11
f 24/86/12 3/85/12 1/39/12 18/42/12
f 9/37/13 26/36/13 32/87/13 11/88/13
f 11/88/14 32/87/14 31/89/14 12/90/14
f 12/90/15 31/89/15 30/91/15 13/92/15
f 13/93/16 30/94/16 29/95/16 14/96/16
f 14/96/17 29/95/17 28/97/17 15/98/17
f 15/98/18 28/97/18 27/99/18 16/100/18
f 16/100/19 27/99/19 25/41/19 10/40/19
f 33/101/20 50/102/20 56/103/20 35/104/20
f 35/104/21 56/103/21 55/105/21 36/106/21
f 36/106/22 55/105/22 54/107/22 37/108/22
f 37/108/23 54/107/23 53/109/23 38/110/23
f 38/110/24 53/109/24 52/111/24 39/112/24
f 39/112/25 52/111/25 51/113/25 40/114/25
f 40/114/26 51/113/26 49/33/26 34/8/26
f 57/35/27 42/38/27 48/115/27 59/116/27
f 59/116/28 48/115/28 47/117/28 60/118/28
f 60/118/29 47/117/29 46/119/29 61/120/29
f 61/120/30 46/119/30 45/121/30 62/122/30
f 62/122/31 45/121/31 44/123/31 63/124/31
f 63/124/32 44/123/32 43/125/32 64/126/32
f 64/126/33 43/125/33 41/9/33 58/34/33
f 17/71/34 50/102/34 33/101/34 2/72/34
