# Blender v2.93.5 OBJ File: 'ESU_altafidelidad_Entorno.blend'
# www.blender.org
mtllib BtnMonoBlue.mtl
v 45.965172 626.900879 -128.878891
v 45.490784 626.430237 -128.883957
v 45.859985 626.889465 -128.880234
v 45.759975 626.854919 -128.881439
v 45.670162 626.798950 -128.882477
v 45.595043 626.724426 -128.883286
v 45.538395 626.635071 -128.883820
v 45.503048 626.535339 -128.884048
v 50.847515 626.408936 -128.814453
v 50.376904 626.883362 -128.821640
v 50.836090 626.514160 -128.814850
v 50.801544 626.614136 -128.815521
v 50.745609 626.703979 -128.816452
v 50.671089 626.779114 -128.817596
v 50.581726 626.835754 -128.818878
v 50.481998 626.871094 -128.820251
v 45.506382 626.427429 -130.086960
v 45.980774 626.898132 -130.081879
v 45.518646 626.532532 -130.087036
v 45.553993 626.632324 -130.086807
v 45.610645 626.721680 -130.086273
v 45.685760 626.796204 -130.085480
v 45.775574 626.852112 -130.084442
v 45.875584 626.886719 -130.083221
v 50.392502 626.880615 -130.024643
v 50.863113 626.406189 -130.017456
v 50.497597 626.868347 -130.023239
v 50.597324 626.833008 -130.021866
v 50.686691 626.776367 -130.020584
v 50.761208 626.701233 -130.019440
v 50.817142 626.611389 -130.018509
v 50.851688 626.511414 -130.017838
v 45.473145 622.018127 -128.874084
v 45.943756 621.543701 -128.866898
v 45.484570 621.912903 -128.873703
v 45.519115 621.812927 -128.873032
v 45.575050 621.723083 -128.872101
v 45.649567 621.647949 -128.870956
v 45.738934 621.591309 -128.869675
v 45.838661 621.555969 -128.868301
v 50.355484 621.526184 -128.809662
v 50.829876 621.996887 -128.804581
v 50.460674 621.537598 -128.808319
v 50.560684 621.572205 -128.807098
v 50.650497 621.628113 -128.806061
v 50.725613 621.702637 -128.805267
v 50.782265 621.791992 -128.804733
v 50.817612 621.891785 -128.804504
v 45.959354 621.540955 -130.069901
v 45.488743 622.015381 -130.077087
v 45.854259 621.553223 -130.071289
v 45.754532 621.588562 -130.072662
v 45.665169 621.645203 -130.073944
v 45.590649 621.720337 -130.075089
v 45.534714 621.810181 -130.076019
v 45.500168 621.910156 -130.076691
v 50.845474 621.994080 -130.007584
v 50.371086 621.523438 -130.012650
v 50.833210 621.888977 -130.007492
v 50.797863 621.789246 -130.007721
v 50.741215 621.699890 -130.008255
v 50.666096 621.625366 -130.009064
v 50.576283 621.569397 -130.010101
v 50.476273 621.534851 -130.011307
vt 0.375000 0.772052
vt 0.375553 0.767145
vt 0.377184 0.762484
vt 0.379811 0.758303
vt 0.383303 0.754811
vt 0.387484 0.752184
vt 0.392145 0.750553
vt 0.397052 0.750000
vt 0.602948 0.750000
vt 0.607855 0.750553
vt 0.612516 0.752184
vt 0.616697 0.754811
vt 0.620189 0.758303
vt 0.622816 0.762484
vt 0.624447 0.767145
vt 0.625000 0.772052
vt 0.625000 0.977948
vt 0.624447 0.982855
vt 0.622816 0.987516
vt 0.620189 0.991697
vt 0.616697 0.995189
vt 0.612516 0.997816
vt 0.607855 0.999447
vt 0.602948 1.000000
vt 0.397052 1.000000
vt 0.392145 0.999447
vt 0.387484 0.997816
vt 0.383303 0.995189
vt 0.379811 0.991697
vt 0.377184 0.987516
vt 0.375553 0.982855
vt 0.375000 0.977948
vt 0.397052 0.500000
vt 0.602948 0.500000
vt 0.647052 0.500000
vt 0.852948 0.500000
vt 0.852948 0.750000
vt 0.647052 0.750000
vt 0.397052 0.000000
vt 0.602948 0.000000
vt 0.602948 0.250000
vt 0.397052 0.250000
vt 0.375000 0.272052
vt 0.375553 0.267145
vt 0.377184 0.262484
vt 0.379811 0.258303
vt 0.383303 0.254811
vt 0.387484 0.252184
vt 0.392145 0.250553
vt 0.607855 0.250553
vt 0.612516 0.252184
vt 0.616697 0.254811
vt 0.620189 0.258303
vt 0.622816 0.262484
vt 0.624447 0.267145
vt 0.625000 0.272052
vt 0.625000 0.477948
vt 0.624447 0.482855
vt 0.622816 0.487516
vt 0.620189 0.491697
vt 0.616697 0.495189
vt 0.612516 0.497816
vt 0.607855 0.499447
vt 0.392145 0.499447
vt 0.387484 0.497816
vt 0.383303 0.495189
vt 0.379811 0.491697
vt 0.377184 0.487516
vt 0.375553 0.482855
vt 0.375000 0.477948
vt 0.147052 0.500000
vt 0.147052 0.750000
vt 0.142145 0.750000
vt 0.142145 0.500000
vt 0.137484 0.750000
vt 0.137484 0.500000
vt 0.133303 0.750000
vt 0.133303 0.500000
vt 0.125000 0.750000
vt 0.125000 0.500000
vt 0.383303 0.250000
vt 0.383303 0.000000
vt 0.387484 0.000000
vt 0.387484 0.250000
vt 0.392145 0.000000
vt 0.392145 0.250000
vt 0.857855 0.500000
vt 0.857855 0.750000
vt 0.862516 0.500000
vt 0.862516 0.750000
vt 0.866697 0.500000
vt 0.866697 0.750000
vt 0.625000 0.000000
vt 0.625000 0.250000
vt 0.616697 0.250000
vt 0.616697 0.000000
vt 0.612516 0.250000
vt 0.612516 0.000000
vt 0.607855 0.250000
vt 0.607855 0.000000
vt 0.352948 0.750000
vt 0.352948 0.500000
vt 0.357855 0.500000
vt 0.357855 0.750000
vt 0.362516 0.500000
vt 0.362516 0.750000
vt 0.366697 0.500000
vt 0.366697 0.750000
vt 0.383303 0.500000
vt 0.383303 0.750000
vt 0.387484 0.500000
vt 0.387484 0.750000
vt 0.392145 0.500000
vt 0.392145 0.750000
vt 0.642145 0.750000
vt 0.642145 0.500000
vt 0.637484 0.750000
vt 0.637484 0.500000
vt 0.633303 0.750000
vt 0.633303 0.500000
vt 0.616697 0.750000
vt 0.616697 0.500000
vt 0.612516 0.750000
vt 0.612516 0.500000
vt 0.607855 0.750000
vt 0.607855 0.500000
vn -0.0130 0.0023 0.9999
vn -0.0040 -1.0000 0.0022
vn 0.9999 -0.0040 0.0130
vn 0.0040 1.0000 -0.0022
vn 0.0130 -0.0023 -0.9999
vn -0.9932 0.1159 -0.0131
vn -0.9425 0.3340 -0.0130
vn -0.8445 0.5355 -0.0122
vn -0.7042 0.7099 -0.0108
vn -0.5286 0.8488 -0.0088
vn -0.3267 0.9451 -0.0064
vn -0.1078 0.9942 -0.0036
vn 0.9941 0.1080 0.0126
vn 0.9451 0.3266 0.0115
vn 0.8488 0.5286 0.0098
vn 0.7099 0.7042 0.0075
vn 0.5353 0.8447 0.0050
vn 0.3340 0.9426 0.0022
vn 0.1160 0.9933 -0.0007
vn -0.9941 -0.1080 -0.0126
vn -0.9451 -0.3266 -0.0115
vn -0.8489 -0.5285 -0.0098
vn -0.7099 -0.7042 -0.0076
vn -0.5353 -0.8447 -0.0050
vn -0.3340 -0.9426 -0.0022
vn -0.1160 -0.9933 0.0007
vn 0.9932 -0.1159 0.0131
vn 0.9425 -0.3340 0.0130
vn 0.8445 -0.5355 0.0122
vn 0.7042 -0.7099 0.0108
vn 0.5286 -0.8488 0.0088
vn 0.3267 -0.9451 0.0064
vn 0.1078 -0.9942 0.0036
vn -0.9999 0.0040 -0.0130
usemtl Material.003
s off
f 33/1/1 35/2/1 36/3/1 37/4/1 38/5/1 39/6/1 40/7/1 34/8/1 41/9/1 43/10/1 44/11/1 45/12/1 46/13/1 47/14/1 48/15/1 42/16/1 9/17/1 11/18/1 12/19/1 13/20/1 14/21/1 15/22/1 16/23/1 10/24/1 1/25/1 3/26/1 4/27/1 5/28/1 6/29/1 7/30/1 8/31/1 2/32/1
f 49/33/2 58/34/2 41/9/2 34/8/2
f 57/35/3 26/36/3 9/37/3 42/38/3
f 1/39/4 10/40/4 25/41/4 18/42/4
f 17/43/5 19/44/5 20/45/5 21/46/5 22/47/5 23/48/5 24/49/5 18/42/5 25/41/5 27/50/5 28/51/5 29/52/5 30/53/5 31/54/5 32/55/5 26/56/5 57/57/5 59/58/5 60/59/5 61/60/5 62/61/5 63/62/5 64/63/5 58/34/5 49/33/5 51/64/5 52/65/5 53/66/5 54/67/5 55/68/5 56/69/5 50/70/5
f 17/71/6 2/72/6 8/73/6 19/74/6
f 19/74/7 8/73/7 7/75/7 20/76/7
f 20/76/8 7/75/8 6/77/8 21/78/8
f 21/78/9 6/77/9 5/79/9 22/80/9
f 22/81/10 5/82/10 4/83/10 23/84/10
f 23/84/11 4/83/11 3/85/11 24/86/11
f 24/86/12 3/85/12 1/39/12 18/42/12
f 9/37/13 26/36/13 32/87/13 11/88/13
f 11/88/14 32/87/14 31/89/14 12/90/14
f 12/90/15 31/89/15 30/91/15 13/92/15
f 13/93/16 30/94/16 29/95/16 14/96/16
f 14/96/17 29/95/17 28/97/17 15/98/17
f 15/98/18 28/97/18 27/99/18 16/100/18
f 16/100/19 27/99/19 25/41/19 10/40/19
f 33/101/20 50/102/20 56/103/20 35/104/20
f 35/104/21 56/103/21 55/105/21 36/106/21
f 36/106/22 55/105/22 54/107/22 37/108/22
f 37/108/23 54/107/23 53/109/23 38/110/23
f 38/110/24 53/109/24 52/111/24 39/112/24
f 39/112/25 52/111/25 51/113/25 40/114/25
f 40/114/26 51/113/26 49/33/26 34/8/26
f 57/35/27 42/38/27 48/115/27 59/116/27
f 59/116/28 48/115/28 47/117/28 60/118/28
f 60/118/29 47/117/29 46/119/29 61/120/29
f 61/120/30 46/119/30 45/121/30 62/122/30
f 62/122/31 45/121/31 44/123/31 63/124/31
f 63/124/32 44/123/32 43/125/32 64/126/32
f 64/126/33 43/125/33 41/9/33 58/34/33
f 17/71/34 50/102/34 33/101/34 2/72/34
