# Blender v2.93.5 OBJ File: 'ESU_altafidelidad_Entorno.blend'
# www.blender.org
mtllib BtnMonoYellow.mtl
v 39.251060 626.919006 -128.965973
v 38.776672 626.448364 -128.971039
v 39.145874 626.907593 -128.967316
v 39.045864 626.873047 -128.968521
v 38.956051 626.817078 -128.969559
v 38.880932 626.742554 -128.970367
v 38.824284 626.653198 -128.970901
v 38.788937 626.553467 -128.971130
v 44.133404 626.427063 -128.901535
v 43.662792 626.901489 -128.908722
v 44.121979 626.532288 -128.901932
v 44.087433 626.632263 -128.902603
v 44.031498 626.722107 -128.903534
v 43.956978 626.797241 -128.904678
v 43.867615 626.853882 -128.905960
v 43.767887 626.889221 -128.907333
v 38.792271 626.445557 -130.174042
v 39.266663 626.916260 -130.168961
v 38.804535 626.550659 -130.174118
v 38.839882 626.650452 -130.173889
v 38.896534 626.739807 -130.173355
v 38.971649 626.814331 -130.172562
v 39.061462 626.870239 -130.171524
v 39.161472 626.904846 -130.170303
v 43.678391 626.898743 -130.111725
v 44.149002 626.424316 -130.104538
v 43.783485 626.886475 -130.110321
v 43.883213 626.851135 -130.108948
v 43.972580 626.794495 -130.107666
v 44.047096 626.719360 -130.106522
v 44.103031 626.629517 -130.105591
v 44.137577 626.529541 -130.104919
v 38.759033 622.036255 -128.961166
v 39.229645 621.561829 -128.953979
v 38.770458 621.931030 -128.960785
v 38.805004 621.831055 -128.960114
v 38.860939 621.741211 -128.959183
v 38.935455 621.666077 -128.958038
v 39.024822 621.609436 -128.956757
v 39.124550 621.574097 -128.955383
v 43.641373 621.544312 -128.896744
v 44.115765 622.015015 -128.891663
v 43.746563 621.555725 -128.895401
v 43.846573 621.590332 -128.894180
v 43.936386 621.646240 -128.893143
v 44.011501 621.720764 -128.892349
v 44.068153 621.810120 -128.891815
v 44.103500 621.909912 -128.891586
v 39.245243 621.559082 -130.156982
v 38.774632 622.033508 -130.164169
v 39.140148 621.571350 -130.158371
v 39.040421 621.606689 -130.159744
v 38.951057 621.663330 -130.161026
v 38.876537 621.738464 -130.162170
v 38.820602 621.828308 -130.163101
v 38.786057 621.928284 -130.163773
v 44.131363 622.012207 -130.094666
v 43.656975 621.541565 -130.099731
v 44.119099 621.907104 -130.094574
v 44.083752 621.807373 -130.094803
v 44.027103 621.718018 -130.095337
v 43.951984 621.643494 -130.096146
v 43.862171 621.587524 -130.097183
v 43.762161 621.552979 -130.098389
vt 0.375000 0.772052
vt 0.375553 0.767145
vt 0.377184 0.762484
vt 0.379811 0.758303
vt 0.383303 0.754811
vt 0.387484 0.752184
vt 0.392145 0.750553
vt 0.397052 0.750000
vt 0.602948 0.750000
vt 0.607855 0.750553
vt 0.612516 0.752184
vt 0.616697 0.754811
vt 0.620189 0.758303
vt 0.622816 0.762484
vt 0.624447 0.767145
vt 0.625000 0.772052
vt 0.625000 0.977948
vt 0.624447 0.982855
vt 0.622816 0.987516
vt 0.620189 0.991697
vt 0.616697 0.995189
vt 0.612516 0.997816
vt 0.607855 0.999447
vt 0.602948 1.000000
vt 0.397052 1.000000
vt 0.392145 0.999447
vt 0.387484 0.997816
vt 0.383303 0.995189
vt 0.379811 0.991697
vt 0.377184 0.987516
vt 0.375553 0.982855
vt 0.375000 0.977948
vt 0.397052 0.500000
vt 0.602948 0.500000
vt 0.647052 0.500000
vt 0.852948 0.500000
vt 0.852948 0.750000
vt 0.647052 0.750000
vt 0.397052 0.000000
vt 0.602948 0.000000
vt 0.602948 0.250000
vt 0.397052 0.250000
vt 0.375000 0.272052
vt 0.375553 0.267145
vt 0.377184 0.262484
vt 0.379811 0.258303
vt 0.383303 0.254811
vt 0.387484 0.252184
vt 0.392145 0.250553
vt 0.607855 0.250553
vt 0.612516 0.252184
vt 0.616697 0.254811
vt 0.620189 0.258303
vt 0.622816 0.262484
vt 0.624447 0.267145
vt 0.625000 0.272052
vt 0.625000 0.477948
vt 0.624447 0.482855
vt 0.622816 0.487516
vt 0.620189 0.491697
vt 0.616697 0.495189
vt 0.612516 0.497816
vt 0.607855 0.499447
vt 0.392145 0.499447
vt 0.387484 0.497816
vt 0.383303 0.495189
vt 0.379811 0.491697
vt 0.377184 0.487516
vt 0.375553 0.482855
vt 0.375000 0.477948
vt 0.147052 0.500000
vt 0.147052 0.750000
vt 0.142145 0.750000
vt 0.142145 0.500000
vt 0.137484 0.750000
vt 0.137484 0.500000
vt 0.133303 0.750000
vt 0.133303 0.500000
vt 0.125000 0.750000
vt 0.125000 0.500000
vt 0.383303 0.250000
vt 0.383303 0.000000
vt 0.387484 0.000000
vt 0.387484 0.250000
vt 0.392145 0.000000
vt 0.392145 0.250000
vt 0.857855 0.500000
vt 0.857855 0.750000
vt 0.862516 0.500000
vt 0.862516 0.750000
vt 0.866697 0.500000
vt 0.866697 0.750000
vt 0.625000 0.000000
vt 0.625000 0.250000
vt 0.616697 0.250000
vt 0.616697 0.000000
vt 0.612516 0.250000
vt 0.612516 0.000000
vt 0.607855 0.250000
vt 0.607855 0.000000
vt 0.352948 0.750000
vt 0.352948 0.500000
vt 0.357855 0.500000
vt 0.357855 0.750000
vt 0.362516 0.500000
vt 0.362516 0.750000
vt 0.366697 0.500000
vt 0.366697 0.750000
vt 0.383303 0.500000
vt 0.383303 0.750000
vt 0.387484 0.500000
vt 0.387484 0.750000
vt 0.392145 0.500000
vt 0.392145 0.750000
vt 0.642145 0.750000
vt 0.642145 0.500000
vt 0.637484 0.750000
vt 0.637484 0.500000
vt 0.633303 0.750000
vt 0.633303 0.500000
vt 0.616697 0.750000
vt 0.616697 0.500000
vt 0.612516 0.750000
vt 0.612516 0.500000
vt 0.607855 0.750000
vt 0.607855 0.500000
vn -0.0130 0.0023 0.9999
vn -0.0040 -1.0000 0.0023
vn 0.9999 -0.0040 0.0130
vn 0.0040 1.0000 -0.0023
vn 0.0130 -0.0023 -0.9999
vn -0.9932 0.1159 -0.0132
vn -0.9425 0.3340 -0.0130
vn -0.8445 0.5355 -0.0122
vn -0.7042 0.7099 -0.0107
vn -0.5286 0.8488 -0.0088
vn -0.3267 0.9451 -0.0064
vn -0.1078 0.9942 -0.0037
vn 0.9941 0.1080 0.0126
vn 0.9451 0.3267 0.0115
vn 0.8489 0.5285 0.0098
vn 0.7099 0.7042 0.0076
vn 0.5353 0.8447 0.0050
vn 0.3340 0.9426 0.0021
vn 0.1160 0.9933 -0.0008
vn -0.9941 -0.1080 -0.0126
vn -0.9451 -0.3266 -0.0115
vn -0.8488 -0.5285 -0.0098
vn -0.7099 -0.7043 -0.0077
vn -0.5353 -0.8447 -0.0050
vn -0.3340 -0.9426 -0.0021
vn -0.1160 -0.9933 0.0008
vn 0.9932 -0.1159 0.0132
vn 0.9425 -0.3340 0.0130
vn 0.8445 -0.5354 0.0122
vn 0.7042 -0.7099 0.0107
vn 0.5286 -0.8488 0.0088
vn 0.3267 -0.9451 0.0064
vn 0.1078 -0.9942 0.0037
vn -0.9999 0.0040 -0.0130
usemtl Material.002
s off
f 33/1/1 35/2/1 36/3/1 37/4/1 38/5/1 39/6/1 40/7/1 34/8/1 41/9/1 43/10/1 44/11/1 45/12/1 46/13/1 47/14/1 48/15/1 42/16/1 9/17/1 11/18/1 12/19/1 13/20/1 14/21/1 15/22/1 16/23/1 10/24/1 1/25/1 3/26/1 4/27/1 5/28/1 6/29/1 7/30/1 8/31/1 2/32/1
f 49/33/2 58/34/2 41/9/2 34/8/2
f 57/35/3 26/36/3 9/37/3 42/38/3
f 1/39/4 10/40/4 25/41/4 18/42/4
f 17/43/5 19/44/5 20/45/5 21/46/5 22/47/5 23/48/5 24/49/5 18/42/5 25/41/5 27/50/5 28/51/5 29/52/5 30/53/5 31/54/5 32/55/5 26/56/5 57/57/5 59/58/5 60/59/5 61/60/5 62/61/5 63/62/5 64/63/5 58/34/5 49/33/5 51/64/5 52/65/5 53/66/5 54/67/5 55/68/5 56/69/5 50/70/5
f 17/71/6 2/72/6 8/73/6 19/74/6
f 19/74/7 8/73/7 7/75/7 20/76/7
f 20/76/8 7/75/8 6/77/8 21/78/8
f 21/78/9 6/77/9 5/79/9 22/80/9
f 22/81/10 5/82/10 4/83/10 23/84/10
f 23/84/11 4/83/11 3/85/11 24/86/11
f 24/86/12 3/85/12 1/39/12 18/42/12
f 9/37/13 26/36/13 32/87/13 11/88/13
f 11/88/14 32/87/14 31/89/14 12/90/14
f 12/90/15 31/89/15 30/91/15 13/92/15
f 13/93/16 30/94/16 29/95/16 14/96/16
f 14/96/17 29/95/17 28/97/17 15/98/17
f 15/98/18 28/97/18 27/99/18 16/100/18
f 16/100/19 27/99/19 25/41/19 10/40/19
f 33/101/20 50/102/20 56/103/20 35/104/20
f 35/104/21 56/103/21 55/105/21 36/106/21
f 36/106/22 55/105/22 54/107/22 37/108/22
f 37/108/23 54/107/23 53/109/23 38/110/23
f 38/110/24 53/109/24 52/111/24 39/112/24
f 39/112/25 52/111/25 51/113/25 40/114/25
f 40/114/26 51/113/26 49/33/26 34/8/26
f 57/35/27 42/38/27 48/115/27 59/116/27
f 59/116/28 48/115/28 47/117/28 60/118/28
f 60/118/29 47/117/29 46/119/29 61/120/29
f 61/120/30 46/119/30 45/121/30 62/122/30
f 62/122/31 45/121/31 44/123/31 63/124/31
f 63/124/32 44/123/32 43/125/32 64/126/32
f 64/126/33 43/125/33 41/9/33 58/34/33
f 17/71/34 50/102/34 33/101/34 2/72/34
