# Blender v2.93.5 OBJ File: 'ESU_altafidelidad_Entorno.blend'
# www.blender.org
mtllib BtnPower.mtl
v 39.286217 635.708130 -128.985626
v 38.811829 635.237488 -128.990692
v 39.181030 635.696716 -128.986969
v 39.081020 635.662170 -128.988174
v 38.991207 635.606201 -128.989212
v 38.916088 635.531677 -128.990021
v 38.859440 635.442322 -128.990555
v 38.824093 635.342590 -128.990784
v 44.168560 635.216187 -128.921188
v 43.697948 635.690613 -128.928375
v 44.157135 635.321411 -128.921585
v 44.122589 635.421387 -128.922256
v 44.066654 635.511230 -128.923187
v 43.992134 635.586365 -128.924332
v 43.902771 635.643005 -128.925613
v 43.803043 635.678345 -128.926987
v 38.827427 635.234680 -130.193695
v 39.301819 635.705383 -130.188614
v 38.839691 635.339783 -130.193771
v 38.875038 635.439575 -130.193542
v 38.931690 635.528931 -130.193008
v 39.006805 635.603455 -130.192215
v 39.096619 635.659363 -130.191177
v 39.196629 635.693970 -130.189957
v 43.713547 635.687866 -130.131378
v 44.184158 635.213440 -130.124191
v 43.818642 635.675598 -130.129974
v 43.918369 635.640259 -130.128601
v 44.007736 635.583618 -130.127319
v 44.082253 635.508484 -130.126175
v 44.138187 635.418640 -130.125244
v 44.172733 635.318665 -130.124573
v 38.794189 630.825378 -128.980820
v 39.264801 630.350952 -128.973633
v 38.805614 630.720154 -128.980438
v 38.840160 630.620178 -128.979767
v 38.896095 630.530334 -128.978836
v 38.970612 630.455200 -128.977692
v 39.059978 630.398560 -128.976410
v 39.159706 630.363220 -128.975037
v 43.676529 630.333435 -128.916397
v 44.150921 630.804138 -128.911316
v 43.781719 630.344849 -128.915054
v 43.881729 630.379456 -128.913834
v 43.971542 630.435364 -128.912796
v 44.046658 630.509888 -128.912003
v 44.103310 630.599243 -128.911469
v 44.138657 630.699036 -128.911240
v 39.280399 630.348206 -130.176636
v 38.809788 630.822632 -130.183823
v 39.175304 630.360474 -130.178024
v 39.075577 630.395813 -130.179398
v 38.986214 630.452454 -130.180679
v 38.911694 630.527588 -130.181824
v 38.855759 630.617432 -130.182755
v 38.821213 630.717407 -130.183426
v 44.166519 630.801331 -130.114319
v 43.692131 630.330688 -130.119385
v 44.154255 630.696228 -130.114227
v 44.118908 630.596497 -130.114456
v 44.062260 630.507141 -130.114990
v 43.987141 630.432617 -130.115799
v 43.897327 630.376648 -130.116837
v 43.797318 630.342102 -130.118042
vt 0.375000 0.772052
vt 0.375553 0.767145
vt 0.377184 0.762484
vt 0.379811 0.758303
vt 0.383303 0.754811
vt 0.387484 0.752184
vt 0.392145 0.750553
vt 0.397052 0.750000
vt 0.602948 0.750000
vt 0.607855 0.750553
vt 0.612516 0.752184
vt 0.616697 0.754811
vt 0.620189 0.758303
vt 0.622816 0.762484
vt 0.624447 0.767145
vt 0.625000 0.772052
vt 0.625000 0.977948
vt 0.624447 0.982855
vt 0.622816 0.987516
vt 0.620189 0.991697
vt 0.616697 0.995189
vt 0.612516 0.997816
vt 0.607855 0.999447
vt 0.602948 1.000000
vt 0.397052 1.000000
vt 0.392145 0.999447
vt 0.387484 0.997816
vt 0.383303 0.995189
vt 0.379811 0.991697
vt 0.377184 0.987516
vt 0.375553 0.982855
vt 0.375000 0.977948
vt 0.397052 0.500000
vt 0.602948 0.500000
vt 0.647052 0.500000
vt 0.852948 0.500000
vt 0.852948 0.750000
vt 0.647052 0.750000
vt 0.397052 0.000000
vt 0.602948 0.000000
vt 0.602948 0.250000
vt 0.397052 0.250000
vt 0.375000 0.272052
vt 0.375553 0.267145
vt 0.377184 0.262484
vt 0.379811 0.258303
vt 0.383303 0.254811
vt 0.387484 0.252184
vt 0.392145 0.250553
vt 0.607855 0.250553
vt 0.612516 0.252184
vt 0.616697 0.254811
vt 0.620189 0.258303
vt 0.622816 0.262484
vt 0.624447 0.267145
vt 0.625000 0.272052
vt 0.625000 0.477948
vt 0.624447 0.482855
vt 0.622816 0.487516
vt 0.620189 0.491697
vt 0.616697 0.495189
vt 0.612516 0.497816
vt 0.607855 0.499447
vt 0.392145 0.499447
vt 0.387484 0.497816
vt 0.383303 0.495189
vt 0.379811 0.491697
vt 0.377184 0.487516
vt 0.375553 0.482855
vt 0.375000 0.477948
vt 0.147052 0.500000
vt 0.147052 0.750000
vt 0.142145 0.750000
vt 0.142145 0.500000
vt 0.137484 0.750000
vt 0.137484 0.500000
vt 0.133303 0.750000
vt 0.133303 0.500000
vt 0.125000 0.750000
vt 0.125000 0.500000
vt 0.383303 0.250000
vt 0.383303 0.000000
vt 0.387484 0.000000
vt 0.387484 0.250000
vt 0.392145 0.000000
vt 0.392145 0.250000
vt 0.857855 0.500000
vt 0.857855 0.750000
vt 0.862516 0.500000
vt 0.862516 0.750000
vt 0.866697 0.500000
vt 0.866697 0.750000
vt 0.625000 0.000000
vt 0.625000 0.250000
vt 0.616697 0.250000
vt 0.616697 0.000000
vt 0.612516 0.250000
vt 0.612516 0.000000
vt 0.607855 0.250000
vt 0.607855 0.000000
vt 0.352948 0.750000
vt 0.352948 0.500000
vt 0.357855 0.500000
vt 0.357855 0.750000
vt 0.362516 0.500000
vt 0.362516 0.750000
vt 0.366697 0.500000
vt 0.366697 0.750000
vt 0.383303 0.500000
vt 0.383303 0.750000
vt 0.387484 0.500000
vt 0.387484 0.750000
vt 0.392145 0.500000
vt 0.392145 0.750000
vt 0.642145 0.750000
vt 0.642145 0.500000
vt 0.637484 0.750000
vt 0.637484 0.500000
vt 0.633303 0.750000
vt 0.633303 0.500000
vt 0.616697 0.750000
vt 0.616697 0.500000
vt 0.612516 0.750000
vt 0.612516 0.500000
vt 0.607855 0.750000
vt 0.607855 0.500000
vn -0.0130 0.0023 0.9999
vn -0.0040 -1.0000 0.0022
vn 0.9999 -0.0040 0.0130
vn 0.0040 1.0000 -0.0022
vn 0.0130 -0.0023 -0.9999
vn -0.9932 0.1159 -0.0131
vn -0.9425 0.3339 -0.0130
vn -0.8445 0.5354 -0.0122
vn -0.7042 0.7099 -0.0108
vn -0.5286 0.8488 -0.0088
vn -0.3267 0.9451 -0.0065
vn -0.1078 0.9942 -0.0036
vn 0.9941 0.1080 0.0126
vn 0.9451 0.3266 0.0115
vn 0.8488 0.5285 0.0098
vn 0.7099 0.7042 0.0076
vn 0.5353 0.8447 0.0050
vn 0.3340 0.9426 0.0023
vn 0.1160 0.9933 -0.0007
vn -0.9941 -0.1080 -0.0126
vn -0.9451 -0.3267 -0.0115
vn -0.8488 -0.5285 -0.0098
vn -0.7099 -0.7042 -0.0076
vn -0.5353 -0.8447 -0.0050
vn -0.3340 -0.9426 -0.0022
vn -0.1160 -0.9933 0.0007
vn 0.9932 -0.1159 0.0132
vn 0.9425 -0.3340 0.0130
vn 0.8445 -0.5355 0.0122
vn 0.7042 -0.7099 0.0108
vn 0.5286 -0.8488 0.0088
vn 0.3267 -0.9451 0.0064
vn 0.1078 -0.9942 0.0036
vn -0.9999 0.0040 -0.0130
usemtl Material.001
s off
f 33/1/1 35/2/1 36/3/1 37/4/1 38/5/1 39/6/1 40/7/1 34/8/1 41/9/1 43/10/1 44/11/1 45/12/1 46/13/1 47/14/1 48/15/1 42/16/1 9/17/1 11/18/1 12/19/1 13/20/1 14/21/1 15/22/1 16/23/1 10/24/1 1/25/1 3/26/1 4/27/1 5/28/1 6/29/1 7/30/1 8/31/1 2/32/1
f 49/33/2 58/34/2 41/9/2 34/8/2
f 57/35/3 26/36/3 9/37/3 42/38/3
f 1/39/4 10/40/4 25/41/4 18/42/4
f 17/43/5 19/44/5 20/45/5 21/46/5 22/47/5 23/48/5 24/49/5 18/42/5 25/41/5 27/50/5 28/51/5 29/52/5 30/53/5 31/54/5 32/55/5 26/56/5 57/57/5 59/58/5 60/59/5 61/60/5 62/61/5 63/62/5 64/63/5 58/34/5 49/33/5 51/64/5 52/65/5 53/66/5 54/67/5 55/68/5 56/69/5 50/70/5
f 17/71/6 2/72/6 8/73/6 19/74/6
f 19/74/7 8/73/7 7/75/7 20/76/7
f 20/76/8 7/75/8 6/77/8 21/78/8
f 21/78/9 6/77/9 5/79/9 22/80/9
f 22/81/10 5/82/10 4/83/10 23/84/10
f 23/84/11 4/83/11 3/85/11 24/86/11
f 24/86/12 3/85/12 1/39/12 18/42/12
f 9/37/13 26/36/13 32/87/13 11/88/13
f 11/88/14 32/87/14 31/89/14 12/90/14
f 12/90/15 31/89/15 30/91/15 13/92/15
f 13/93/16 30/94/16 29/95/16 14/96/16
f 14/96/17 29/95/17 28/97/17 15/98/17
f 15/98/18 28/97/18 27/99/18 16/100/18
f 16/100/19 27/99/19 25/41/19 10/40/19
f 33/101/20 50/102/20 56/103/20 35/104/20
f 35/104/21 56/103/21 55/105/21 36/106/21
f 36/106/22 55/105/22 54/107/22 37/108/22
f 37/108/23 54/107/23 53/109/23 38/110/23
f 38/110/24 53/109/24 52/111/24 39/112/24
f 39/112/25 52/111/25 51/113/25 40/114/25
f 40/114/26 51/113/26 49/33/26 34/8/26
f 57/35/27 42/38/27 48/115/27 59/116/27
f 59/116/28 48/115/28 47/117/28 60/118/28
f 60/118/29 47/117/29 46/119/29 61/120/29
f 61/120/30 46/119/30 45/121/30 62/122/30
f 62/122/31 45/121/31 44/123/31 63/124/31
f 63/124/32 44/123/32 43/125/32 64/126/32
f 64/126/33 43/125/33 41/9/33 58/34/33
f 17/71/34 50/102/34 33/101/34 2/72/34
