{
    "asset" : {
        "generator" : "Khronos glTF Blender I/O v1.6.16",
        "version" : "2.0"
    },
    "scene" : 0,
    "scenes" : [
        {
            "name" : "Scene",
            "nodes" : [
                0
            ]
        }
    ],
    "nodes" : [
        {
            "mesh" : 0,
            "name" : "human_male_base03.008",
            "rotation" : [
                -0.6994497776031494,
                0,
                0,
                0.7146817445755005
            ],
            "scale" : [
                14.48001480102539,
                17.265213012695312,
                14.481433868408203
            ],
            "translation" : [
                -2.9170546531677246,
                16.298885345458984,
                -9.017552375793457
            ]
        }
    ],
    "materials" : [
        {
            "doubleSided" : true,
            "name" : "Material.042",
            "pbrMetallicRoughness" : {
                "baseColorTexture" : {
                    "index" : 0
                },
                "metallicFactor" : 0,
                "roughnessFactor" : 0.13970589637756348
            }
        }
    ],
    "meshes" : [
        {
            "name" : "human_male.009",
            "primitives" : [
                {
                    "attributes" : {
                        "POSITION" : 0,
                        "NORMAL" : 1,
                        "TEXCOORD_0" : 2
                    },
                    "indices" : 3,
                    "material" : 0
                }
            ]
        }
    ],
    "textures" : [
        {
            "sampler" : 0,
            "source" : 0
        }
    ],
    "images" : [
        {
            "bufferView" : 4,
            "mimeType" : "image/jpeg",
            "name" : "texture_organos2"
        }
    ],
    "accessors" : [
        {
            "bufferView" : 0,
            "componentType" : 5126,
            "count" : 11447,
            "max" : [
                0.013986974954605103,
                0.017944764345884323,
                0.007591046392917633
            ],
            "min" : [
                -0.013983219861984253,
                -0.01741630956530571,
                -0.00689002126455307
            ],
            "type" : "VEC3"
        },
        {
            "bufferView" : 1,
            "componentType" : 5126,
            "count" : 11447,
            "type" : "VEC3"
        },
        {
            "bufferView" : 2,
            "componentType" : 5126,
            "count" : 11447,
            "type" : "VEC2"
        },
        {
            "bufferView" : 3,
            "componentType" : 5123,
            "count" : 57714,
            "type" : "SCALAR"
        }
    ],
    "bufferViews" : [
        {
            "buffer" : 0,
            "byteLength" : 137364,
            "byteOffset" : 0
        },
        {
            "buffer" : 0,
            "byteLength" : 137364,
            "byteOffset" : 137364
        },
        {
            "buffer" : 0,
            "byteLength" : 91576,
            "byteOffset" : 274728
        },
        {
            "buffer" : 0,
            "byteLength" : 115428,
            "byteOffset" : 366304
        },
        {
            "buffer" : 0,
            "byteLength" : 742245,
            "byteOffset" : 481732
        }
    ],
    "samplers" : [
        {
            "magFilter" : 9729,
            "minFilter" : 9987
        }
    ],
    "buffers" : [
        {
            "byteLength" : 1223980,
            "uri" : "data:application/octet-stream;base64,"
        }
    ]
}
