{
    "asset" : {
        "generator" : "Khronos glTF Blender I/O v1.6.16",
        "version" : "2.0"
    },
    "scene" : 0,
    "scenes" : [
        {
            "name" : "Scene",
            "nodes" : [
                0,
                1
            ]
        }
    ],
    "nodes" : [
        {
            "mesh" : 0,
            "name" : "human_male_base03.003",
            "rotation" : [
                -0.6994497776031494,
                0,
                0,
                0.7146817445755005
            ],
            "scale" : [
                14.48001480102539,
                17.265213012695312,
                14.481433868408203
            ],
            "translation" : [
                -1.5680286884307861,
                14.89581298828125,
                -10.092376708984375
            ]
        },
        {
            "mesh" : 1,
            "name" : "human_male_base03.007",
            "rotation" : [
                -0.6994497776031494,
                0,
                0,
                0.7146817445755005
            ],
            "scale" : [
                14.48001480102539,
                17.265213012695312,
                14.481433868408203
            ],
            "translation" : [
                -2.926307201385498,
                16.279977798461914,
                -9.018037796020508
            ]
        }
    ],
    "materials" : [
        {
            "doubleSided" : true,
            "name" : "human_skin.002",
            "pbrMetallicRoughness" : {
                "baseColorFactor" : [
                    0.955973744392395,
                    0.3762620687484741,
                    0.16826942563056946,
                    1
                ],
                "metallicFactor" : 0,
                "roughnessFactor" : 0.5
            }
        },
        {
            "doubleSided" : true,
            "name" : "Material.039",
            "pbrMetallicRoughness" : {
                "baseColorFactor" : [
                    0.597201943397522,
                    0.10392138361930847,
                    0.07570935785770416,
                    1
                ],
                "metallicFactor" : 0,
                "roughnessFactor" : 0.5
            }
        },
        {
            "doubleSided" : true,
            "name" : "Material.041",
            "pbrMetallicRoughness" : {
                "baseColorFactor" : [
                    0.4969180226325989,
                    0,
                    0.0025664642453193665,
                    1
                ],
                "metallicFactor" : 0,
                "roughnessFactor" : 0.5
            }
        },
        {
            "doubleSided" : true,
            "name" : "Material.009",
            "pbrMetallicRoughness" : {
                "baseColorFactor" : [
                    0.2738285958766937,
                    0.2738285958766937,
                    0.2738285958766937,
                    1
                ],
                "metallicFactor" : 0,
                "roughnessFactor" : 0.5
            }
        }
    ],
    "meshes" : [
        {
            "name" : "human_male.004",
            "primitives" : [
                {
                    "attributes" : {
                        "POSITION" : 0,
                        "NORMAL" : 1,
                        "TEXCOORD_0" : 2
                    },
                    "indices" : 3,
                    "material" : 0
                },
                {
                    "attributes" : {
                        "POSITION" : 4,
                        "NORMAL" : 5,
                        "TEXCOORD_0" : 6
                    },
                    "indices" : 7,
                    "material" : 1
                },
                {
                    "attributes" : {
                        "POSITION" : 8,
                        "NORMAL" : 9,
                        "TEXCOORD_0" : 10
                    },
                    "indices" : 11,
                    "material" : 2
                }
            ]
        },
        {
            "name" : "human_male.008",
            "primitives" : [
                {
                    "attributes" : {
                        "POSITION" : 12,
                        "NORMAL" : 13,
                        "TEXCOORD_0" : 14
                    },
                    "indices" : 15,
                    "material" : 3
                }
            ]
        }
    ],
    "accessors" : [
        {
            "bufferView" : 0,
            "componentType" : 5126,
            "count" : 609,
            "max" : [
                0.16659998893737793,
                0.14184612035751343,
                0.11900001764297485
            ],
            "min" : [
                -0.16659998893737793,
                -0.14184612035751343,
                -0.11900001764297485
            ],
            "type" : "VEC3"
        },
        {
            "bufferView" : 1,
            "componentType" : 5126,
            "count" : 609,
            "type" : "VEC3"
        },
        {
            "bufferView" : 2,
            "componentType" : 5126,
            "count" : 609,
            "type" : "VEC2"
        },
        {
            "bufferView" : 3,
            "componentType" : 5123,
            "count" : 3132,
            "type" : "SCALAR"
        },
        {
            "bufferView" : 4,
            "componentType" : 5126,
            "count" : 14,
            "max" : [
                -0.09020014107227325,
                -0.042077187448740005,
                0.10256484150886536
            ],
            "min" : [
                -0.098684161901474,
                -0.07831202447414398,
                0.08940199017524719
            ],
            "type" : "VEC3"
        },
        {
            "bufferView" : 5,
            "componentType" : 5126,
            "count" : 14,
            "type" : "VEC3"
        },
        {
            "bufferView" : 6,
            "componentType" : 5126,
            "count" : 14,
            "type" : "VEC2"
        },
        {
            "bufferView" : 7,
            "componentType" : 5123,
            "count" : 30,
            "type" : "SCALAR"
        },
        {
            "bufferView" : 8,
            "componentType" : 5126,
            "count" : 4,
            "max" : [
                -0.04673736169934273,
                -0.022117694839835167,
                0.09045712649822235
            ],
            "min" : [
                -0.11135151237249374,
                -0.09029681235551834,
                0.08870577067136765
            ],
            "type" : "VEC3"
        },
        {
            "bufferView" : 9,
            "componentType" : 5126,
            "count" : 4,
            "type" : "VEC3"
        },
        {
            "bufferView" : 10,
            "componentType" : 5126,
            "count" : 4,
            "type" : "VEC2"
        },
        {
            "bufferView" : 11,
            "componentType" : 5123,
            "count" : 6,
            "type" : "SCALAR"
        },
        {
            "bufferView" : 12,
            "componentType" : 5126,
            "count" : 240,
            "max" : [
                0.00384443998336792,
                0.09413151443004608,
                0.007528036832809448
            ],
            "min" : [
                -0.008773967623710632,
                -0.09413151443004608,
                -0.0012732520699501038
            ],
            "type" : "VEC3"
        },
        {
            "bufferView" : 13,
            "componentType" : 5126,
            "count" : 240,
            "type" : "VEC3"
        },
        {
            "bufferView" : 14,
            "componentType" : 5126,
            "count" : 240,
            "type" : "VEC2"
        },
        {
            "bufferView" : 15,
            "componentType" : 5123,
            "count" : 408,
            "type" : "SCALAR"
        }
    ],
    "bufferViews" : [
        {
            "buffer" : 0,
            "byteLength" : 7308,
            "byteOffset" : 0
        },
        {
            "buffer" : 0,
            "byteLength" : 7308,
            "byteOffset" : 7308
        },
        {
            "buffer" : 0,
            "byteLength" : 4872,
            "byteOffset" : 14616
        },
        {
            "buffer" : 0,
            "byteLength" : 6264,
            "byteOffset" : 19488
        },
        {
            "buffer" : 0,
            "byteLength" : 168,
            "byteOffset" : 25752
        },
        {
            "buffer" : 0,
            "byteLength" : 168,
            "byteOffset" : 25920
        },
        {
            "buffer" : 0,
            "byteLength" : 112,
            "byteOffset" : 26088
        },
        {
            "buffer" : 0,
            "byteLength" : 60,
            "byteOffset" : 26200
        },
        {
            "buffer" : 0,
            "byteLength" : 48,
            "byteOffset" : 26260
        },
        {
            "buffer" : 0,
            "byteLength" : 48,
            "byteOffset" : 26308
        },
        {
            "buffer" : 0,
            "byteLength" : 32,
            "byteOffset" : 26356
        },
        {
            "buffer" : 0,
            "byteLength" : 12,
            "byteOffset" : 26388
        },
        {
            "buffer" : 0,
            "byteLength" : 2880,
            "byteOffset" : 26400
        },
        {
            "buffer" : 0,
            "byteLength" : 2880,
            "byteOffset" : 29280
        },
        {
            "buffer" : 0,
            "byteLength" : 1920,
            "byteOffset" : 32160
        },
        {
            "buffer" : 0,
            "byteLength" : 816,
            "byteOffset" : 34080
        }
    ],
    "buffers" : [
        {
            "byteLength" : 34896,
            "uri" : "data:application/octet-stream;base64,"
        }
    ]
}
