{
    "asset" : {
        "generator" : "Khronos glTF Blender I/O v1.6.16",
        "version" : "2.0"
    },
    "scene" : 0,
    "scenes" : [
        {
            "name" : "Scene",
            "nodes" : [
                0
            ]
        }
    ],
    "nodes" : [
        {
            "mesh" : 0,
            "name" : "human_male_base03.004",
            "rotation" : [
                -0.6994497776031494,
                0,
                0,
                0.7146817445755005
            ],
            "scale" : [
                14.48001480102539,
                17.265213012695312,
                14.481433868408203
            ],
            "translation" : [
                -1.650040864944458,
                14.863534927368164,
                -9.286078453063965
            ]
        }
    ],
    "materials" : [
        {
            "doubleSided" : true,
            "name" : "human_skin.002",
            "pbrMetallicRoughness" : {
                "baseColorFactor" : [
                    0.955973744392395,
                    0.3762620687484741,
                    0.16826942563056946,
                    1
                ],
                "metallicFactor" : 0,
                "roughnessFactor" : 0.5
            }
        }
    ],
    "meshes" : [
        {
            "name" : "human_male.005",
            "primitives" : [
                {
                    "attributes" : {
                        "POSITION" : 0,
                        "NORMAL" : 1,
                        "TEXCOORD_0" : 2
                    },
                    "indices" : 3,
                    "material" : 0
                }
            ]
        }
    ],
    "accessors" : [
        {
            "bufferView" : 0,
            "componentType" : 5126,
            "count" : 552,
            "max" : [
                0.16659998893737793,
                0.14184612035751343,
                0.11951027065515518
            ],
            "min" : [
                -0.16659998893737793,
                -0.14184612035751343,
                -0.11900001764297485
            ],
            "type" : "VEC3"
        },
        {
            "bufferView" : 1,
            "componentType" : 5126,
            "count" : 552,
            "type" : "VEC3"
        },
        {
            "bufferView" : 2,
            "componentType" : 5126,
            "count" : 552,
            "type" : "VEC2"
        },
        {
            "bufferView" : 3,
            "componentType" : 5123,
            "count" : 2967,
            "type" : "SCALAR"
        }
    ],
    "bufferViews" : [
        {
            "buffer" : 0,
            "byteLength" : 6624,
            "byteOffset" : 0
        },
        {
            "buffer" : 0,
            "byteLength" : 6624,
            "byteOffset" : 6624
        },
        {
            "buffer" : 0,
            "byteLength" : 4416,
            "byteOffset" : 13248
        },
        {
            "buffer" : 0,
            "byteLength" : 5934,
            "byteOffset" : 17664
        }
    ],
    "buffers" : [
        {
            "byteLength" : 23600,
            "uri" : "data:application/octet-stream;base64,"
        }
    ]
}
