{
    "asset" : {
        "generator" : "Khronos glTF Blender I/O v1.6.16",
        "version" : "2.0"
    },
    "scene" : 0,
    "scenes" : [
        {
            "name" : "Scene",
            "nodes" : [
                0
            ]
        }
    ],
    "nodes" : [
        {
            "mesh" : 0,
            "name" : "human_male_base03.009",
            "rotation" : [
                -0.6994497776031494,
                0,
                0,
                0.7146817445755005
            ],
            "scale" : [
                13.803447723388672,
                16.458511352539062,
                13.804800033569336
            ],
            "translation" : [
                -2.926307201385498,
                16.29700469970703,
                -9.003447532653809
            ]
        }
    ],
    "materials" : [
        {
            "doubleSided" : true,
            "name" : "Material.043",
            "pbrMetallicRoughness" : {
                "baseColorTexture" : {
                    "index" : 0
                },
                "metallicFactor" : 0,
                "roughnessFactor" : 0.5
            }
        }
    ],
    "meshes" : [
        {
            "name" : "human_male.010",
            "primitives" : [
                {
                    "attributes" : {
                        "POSITION" : 0,
                        "NORMAL" : 1,
                        "TEXCOORD_0" : 2
                    },
                    "indices" : 3,
                    "material" : 0
                }
            ]
        }
    ],
    "textures" : [
        {
            "sampler" : 0,
            "source" : 0
        }
    ],
    "images" : [
        {
            "bufferView" : 4,
            "mimeType" : "image/jpeg",
            "name" : "texture_organos"
        }
    ],
    "accessors" : [
        {
            "bufferView" : 0,
            "componentType" : 5126,
            "count" : 259,
            "max" : [
                0.00993165373802185,
                0.012862630188465118,
                0.004401542246341705
            ],
            "min" : [
                -0.009931176900863647,
                -0.012302827090024948,
                -0.006091766059398651
            ],
            "type" : "VEC3"
        },
        {
            "bufferView" : 1,
            "componentType" : 5126,
            "count" : 259,
            "type" : "VEC3"
        },
        {
            "bufferView" : 2,
            "componentType" : 5126,
            "count" : 259,
            "type" : "VEC2"
        },
        {
            "bufferView" : 3,
            "componentType" : 5123,
            "count" : 888,
            "type" : "SCALAR"
        }
    ],
    "bufferViews" : [
        {
            "buffer" : 0,
            "byteLength" : 3108,
            "byteOffset" : 0
        },
        {
            "buffer" : 0,
            "byteLength" : 3108,
            "byteOffset" : 3108
        },
        {
            "buffer" : 0,
            "byteLength" : 2072,
            "byteOffset" : 6216
        },
        {
            "buffer" : 0,
            "byteLength" : 1776,
            "byteOffset" : 8288
        },
        {
            "buffer" : 0,
            "byteLength" : 95667,
            "byteOffset" : 10064
        }
    ],
    "samplers" : [
        {
            "magFilter" : 9729,
            "minFilter" : 9987
        }
    ],
    "buffers" : [
        {
            "byteLength" : 105732,
            "uri" : "data:application/octet-stream;base64,"
        }
    ]
}
