{
    "asset" : {
        "generator" : "Khronos glTF Blender I/O v1.6.16",
        "version" : "2.0"
    },
    "scene" : 0,
    "scenes" : [
        {
            "name" : "Scene",
            "nodes" : [
                3,
                4
            ]
        }
    ],
    "nodes" : [
        {
            "name" : "Bone",
            "rotation" : [
                -0.017683207988739014,
                0,
                0,
                0.9998436570167542
            ],
            "translation" : [
                0,
                5.627377049677307e-06,
                1.3160590242478065e-05
            ]
        },
        {
            "name" : "Bone.001",
            "translation" : [
                0,
                -2.6148836612701416,
                2.697700023651123
            ]
        },
        {
            "name" : "Bone.002",
            "translation" : [
                3.1812360286712646,
                -1.7000571489334106,
                0.7783927321434021
            ]
        },
        {
            "children" : [
                0,
                1,
                2
            ],
            "name" : "Armature",
            "scale" : [
                4.125346660614014,
                4.125346660614014,
                4.125346660614014
            ],
            "translation" : [
                136.6100616455078,
                682.217529296875,
                331.7803955078125
            ]
        },
        {
            "mesh" : 0,
            "name" : "BtnAvisoRed",
            "rotation" : [
                0.003785507520660758,
                -0.005385896191000938,
                -0.7084983587265015,
                0.7056818604469299
            ],
            "scale" : [
                2.6786139011383057,
                2.6786136627197266,
                0.6015483736991882
            ],
            "translation" : [
                41.449947357177734,
                608.47314453125,
                -129.49754333496094
            ]
        }
    ],
    "materials" : [
        {
            "doubleSided" : true,
            "name" : "Material.005",
            "pbrMetallicRoughness" : {
                "baseColorTexture" : {
                    "index" : 0
                },
                "metallicFactor" : 0,
                "roughnessFactor" : 0.5
            }
        }
    ],
    "meshes" : [
        {
            "name" : "Cube.087",
            "primitives" : [
                {
                    "attributes" : {
                        "POSITION" : 0,
                        "NORMAL" : 1,
                        "TEXCOORD_0" : 2
                    },
                    "indices" : 3,
                    "material" : 0
                }
            ]
        }
    ],
    "textures" : [
        {
            "sampler" : 0,
            "source" : 0
        }
    ],
    "images" : [
        {
            "bufferView" : 4,
            "mimeType" : "image/jpeg",
            "name" : "Uv_btn_aviso"
        }
    ],
    "accessors" : [
        {
            "bufferView" : 0,
            "componentType" : 5126,
            "count" : 192,
            "max" : [
                1,
                1,
                1
            ],
            "min" : [
                -1,
                -1,
                -1
            ],
            "type" : "VEC3"
        },
        {
            "bufferView" : 1,
            "componentType" : 5126,
            "count" : 192,
            "type" : "VEC3"
        },
        {
            "bufferView" : 2,
            "componentType" : 5126,
            "count" : 192,
            "type" : "VEC2"
        },
        {
            "bufferView" : 3,
            "componentType" : 5123,
            "count" : 372,
            "type" : "SCALAR"
        }
    ],
    "bufferViews" : [
        {
            "buffer" : 0,
            "byteLength" : 2304,
            "byteOffset" : 0
        },
        {
            "buffer" : 0,
            "byteLength" : 2304,
            "byteOffset" : 2304
        },
        {
            "buffer" : 0,
            "byteLength" : 1536,
            "byteOffset" : 4608
        },
        {
            "buffer" : 0,
            "byteLength" : 744,
            "byteOffset" : 6144
        },
        {
            "buffer" : 0,
            "byteLength" : 34856,
            "byteOffset" : 6888
        }
    ],
    "samplers" : [
        {
            "magFilter" : 9729,
            "minFilter" : 9987
        }
    ],
    "buffers" : [
        {
            "byteLength" : 41744,
            "uri" : "data:application/octet-stream;base64,"
        }
    ]
}
