{
    "asset" : {
        "generator" : "Khronos glTF Blender I/O v1.6.16",
        "version" : "2.0"
    },
    "scene" : 0,
    "scenes" : [
        {
            "name" : "Scene",
            "nodes" : [
                3,
                4,
                5,
                6,
                7
            ]
        }
    ],
    "nodes" : [
        {
            "name" : "Bone",
            "rotation" : [
                -0.017683207988739014,
                0,
                0,
                0.9998436570167542
            ],
            "translation" : [
                0,
                5.627377049677307e-06,
                1.3160590242478065e-05
            ]
        },
        {
            "name" : "Bone.001",
            "translation" : [
                0,
                -2.6148836612701416,
                2.697700023651123
            ]
        },
        {
            "name" : "Bone.002",
            "translation" : [
                3.1812360286712646,
                -1.7000571489334106,
                0.7783927321434021
            ]
        },
        {
            "children" : [
                0,
                1,
                2
            ],
            "name" : "Armature",
            "scale" : [
                4.125346660614014,
                4.125346660614014,
                4.125346660614014
            ],
            "translation" : [
                136.6100616455078,
                682.217529296875,
                331.7803955078125
            ]
        },
        {
            "mesh" : 0,
            "name" : "Cube.065",
            "rotation" : [
                0.6523589491844177,
                -0.29107749462127686,
                -0.3039329946041107,
                -0.6303384304046631
            ],
            "scale" : [
                0.15216203033924103,
                0.1521620750427246,
                0.15216204524040222
            ],
            "translation" : [
                -30.291976928710938,
                583.1528930664062,
                -71.78886413574219
            ]
        },
        {
            "mesh" : 1,
            "name" : "Plane.013",
            "translation" : [
                58.96983337402344,
                591.4684448242188,
                -113.66455078125
            ]
        },
        {
            "mesh" : 2,
            "name" : "Cylinder.017",
            "rotation" : [
                0.23836153745651245,
                -0.23836152255535126,
                -0.665720522403717,
                0.6657205820083618
            ],
            "translation" : [
                -3.7928900718688965,
                582.6160278320312,
                -39.31255340576172
            ]
        },
        {
            "mesh" : 3,
            "name" : "Sphere",
            "rotation" : [
                -0.7027075886726379,
                0.0019502178765833378,
                -0.0004657941753976047,
                -0.7114759683609009
            ],
            "scale" : [
                0.8701478242874146,
                0.870147705078125,
                0.8701480031013489
            ],
            "translation" : [
                58.88442611694336,
                591.4785766601562,
                -122.29893493652344
            ]
        }
    ],
    "materials" : [
        {
            "doubleSided" : true,
            "name" : "Metal_Pinzas.001",
            "pbrMetallicRoughness" : {
                "baseColorFactor" : [
                    0.3467041552066803,
                    0.3324515223503113,
                    0.3094690144062042,
                    1
                ],
                "roughnessFactor" : 0.19090911746025085
            }
        },
        {
            "doubleSided" : true,
            "name" : "Material.041",
            "pbrMetallicRoughness" : {
                "baseColorFactor" : [
                    0.019382359459996223,
                    0.26635563373565674,
                    0.4620770215988159,
                    1
                ],
                "metallicFactor" : 0,
                "roughnessFactor" : 0.5
            }
        },
        {
            "doubleSided" : true,
            "name" : "Material.042",
            "pbrMetallicRoughness" : {
                "baseColorFactor" : [
                    0.057805441319942474,
                    0.13286834955215454,
                    0.21586059033870697,
                    1
                ],
                "metallicFactor" : 0,
                "roughnessFactor" : 0.5
            }
        },
        {
            "doubleSided" : true,
            "name" : "Material.013",
            "pbrMetallicRoughness" : {
                "baseColorFactor" : [
                    0.2655361294746399,
                    0.2655361294746399,
                    0.2655361294746399,
                    1
                ],
                "roughnessFactor" : 0.7045454382896423
            }
        }
    ],
    "meshes" : [
        {
            "name" : "Cube.032",
            "primitives" : [
                {
                    "attributes" : {
                        "POSITION" : 0,
                        "NORMAL" : 1,
                        "TANGENT" : 2,
                        "TEXCOORD_0" : 3
                    },
                    "indices" : 4,
                    "material" : 0
                },
                {
                    "attributes" : {
                        "POSITION" : 5,
                        "NORMAL" : 6,
                        "TANGENT" : 7,
                        "TEXCOORD_0" : 8
                    },
                    "indices" : 9,
                    "material" : 1
                },
                {
                    "attributes" : {
                        "POSITION" : 10,
                        "NORMAL" : 11,
                        "TANGENT" : 12,
                        "TEXCOORD_0" : 13
                    },
                    "indices" : 14,
                    "material" : 2
                }
            ]
        },
        {
            "name" : "Plane.013",
            "primitives" : [
                {
                    "attributes" : {
                        "POSITION" : 15,
                        "NORMAL" : 16,
                        "TANGENT" : 17,
                        "TEXCOORD_0" : 18
                    },
                    "indices" : 19,
                    "material" : 2
                }
            ]
        },
        {
            "name" : "Cylinder.014",
            "primitives" : [
                {
                    "attributes" : {
                        "POSITION" : 20,
                        "NORMAL" : 21,
                        "TEXCOORD_0" : 22
                    },
                    "indices" : 23,
                    "material" : 2
                }
            ]
        },
        {
            "name" : "Sphere",
            "primitives" : [
                {
                    "attributes" : {
                        "POSITION" : 24,
                        "NORMAL" : 25,
                        "TEXCOORD_0" : 26
                    },
                    "indices" : 27,
                    "material" : 3
                },
                {
                    "attributes" : {
                        "POSITION" : 28,
                        "NORMAL" : 29,
                        "TEXCOORD_0" : 30
                    },
                    "indices" : 31,
                    "material" : 2
                }
            ]
        }
    ],
    "accessors" : [
        {
            "bufferView" : 0,
            "componentType" : 5126,
            "count" : 102,
            "max" : [
                0.5896224975585938,
                3.6946945190429688,
                10.919189453125
            ],
            "min" : [
                -2.2865371704101562,
                -14.884559631347656,
                -15.164779663085938
            ],
            "type" : "VEC3"
        },
        {
            "bufferView" : 1,
            "componentType" : 5126,
            "count" : 102,
            "type" : "VEC3"
        },
        {
            "bufferView" : 2,
            "componentType" : 5126,
            "count" : 102,
            "type" : "VEC4"
        },
        {
            "bufferView" : 3,
            "componentType" : 5126,
            "count" : 102,
            "type" : "VEC2"
        },
        {
            "bufferView" : 4,
            "componentType" : 5123,
            "count" : 120,
            "type" : "SCALAR"
        },
        {
            "bufferView" : 5,
            "componentType" : 5126,
            "count" : 1013,
            "max" : [
                3.2603378295898438,
                -13.236701965332031,
                10.70880126953125
            ],
            "min" : [
                -56.97822952270508,
                -217.60968017578125,
                -17.765594482421875
            ],
            "type" : "VEC3"
        },
        {
            "bufferView" : 6,
            "componentType" : 5126,
            "count" : 1013,
            "type" : "VEC3"
        },
        {
            "bufferView" : 7,
            "componentType" : 5126,
            "count" : 1013,
            "type" : "VEC4"
        },
        {
            "bufferView" : 8,
            "componentType" : 5126,
            "count" : 1013,
            "type" : "VEC2"
        },
        {
            "bufferView" : 9,
            "componentType" : 5123,
            "count" : 1416,
            "type" : "SCALAR"
        },
        {
            "bufferView" : 10,
            "componentType" : 5126,
            "count" : 1608,
            "max" : [
                -37.17951965332031,
                -216.11798095703125,
                3.6530303955078125
            ],
            "min" : [
                -64.07717895507812,
                -271.1163330078125,
                -23.568588256835938
            ],
            "type" : "VEC3"
        },
        {
            "bufferView" : 11,
            "componentType" : 5126,
            "count" : 1608,
            "type" : "VEC3"
        },
        {
            "bufferView" : 12,
            "componentType" : 5126,
            "count" : 1608,
            "type" : "VEC4"
        },
        {
            "bufferView" : 13,
            "componentType" : 5126,
            "count" : 1608,
            "type" : "VEC2"
        },
        {
            "bufferView" : 14,
            "componentType" : 5123,
            "count" : 1668,
            "type" : "SCALAR"
        },
        {
            "bufferView" : 15,
            "componentType" : 5126,
            "count" : 3552,
            "max" : [
                0.38788825273513794,
                0.37999996542930603,
                76.46314239501953
            ],
            "min" : [
                -62.618953704833984,
                -10.210433006286621,
                -1.191886305809021
            ],
            "type" : "VEC3"
        },
        {
            "bufferView" : 16,
            "componentType" : 5126,
            "count" : 3552,
            "type" : "VEC3"
        },
        {
            "bufferView" : 17,
            "componentType" : 5126,
            "count" : 3552,
            "type" : "VEC4"
        },
        {
            "bufferView" : 18,
            "componentType" : 5126,
            "count" : 3552,
            "type" : "VEC2"
        },
        {
            "bufferView" : 19,
            "componentType" : 5123,
            "count" : 5328,
            "type" : "SCALAR"
        },
        {
            "bufferView" : 20,
            "componentType" : 5126,
            "count" : 192,
            "max" : [
                0.6849106550216675,
                1.5015100240707397,
                0.6849274039268494
            ],
            "min" : [
                -0.6849490404129028,
                -0.5322349071502686,
                -0.6849321722984314
            ],
            "type" : "VEC3"
        },
        {
            "bufferView" : 21,
            "componentType" : 5126,
            "count" : 192,
            "type" : "VEC3"
        },
        {
            "bufferView" : 22,
            "componentType" : 5126,
            "count" : 192,
            "type" : "VEC2"
        },
        {
            "bufferView" : 23,
            "componentType" : 5123,
            "count" : 372,
            "type" : "SCALAR"
        },
        {
            "bufferView" : 24,
            "componentType" : 5126,
            "count" : 1920,
            "max" : [
                7.317660331726074,
                -2.2842979431152344,
                0.9800639748573303
            ],
            "min" : [
                -6.680924892425537,
                -4.476482391357422,
                -1.1073672771453857
            ],
            "type" : "VEC3"
        },
        {
            "bufferView" : 25,
            "componentType" : 5126,
            "count" : 1920,
            "type" : "VEC3"
        },
        {
            "bufferView" : 26,
            "componentType" : 5126,
            "count" : 1920,
            "type" : "VEC2"
        },
        {
            "bufferView" : 27,
            "componentType" : 5123,
            "count" : 3048,
            "type" : "SCALAR"
        },
        {
            "bufferView" : 28,
            "componentType" : 5126,
            "count" : 388,
            "max" : [
                8.387901306152344,
                8.565789222717285,
                1.3015639781951904
            ],
            "min" : [
                -7.8956756591796875,
                -2.5808894634246826,
                -1.5628248453140259
            ],
            "type" : "VEC3"
        },
        {
            "bufferView" : 29,
            "componentType" : 5126,
            "count" : 388,
            "type" : "VEC3"
        },
        {
            "bufferView" : 30,
            "componentType" : 5126,
            "count" : 388,
            "type" : "VEC2"
        },
        {
            "bufferView" : 31,
            "componentType" : 5123,
            "count" : 744,
            "type" : "SCALAR"
        }
    ],
    "bufferViews" : [
        {
            "buffer" : 0,
            "byteLength" : 1224,
            "byteOffset" : 0
        },
        {
            "buffer" : 0,
            "byteLength" : 1224,
            "byteOffset" : 1224
        },
        {
            "buffer" : 0,
            "byteLength" : 1632,
            "byteOffset" : 2448
        },
        {
            "buffer" : 0,
            "byteLength" : 816,
            "byteOffset" : 4080
        },
        {
            "buffer" : 0,
            "byteLength" : 240,
            "byteOffset" : 4896
        },
        {
            "buffer" : 0,
            "byteLength" : 12156,
            "byteOffset" : 5136
        },
        {
            "buffer" : 0,
            "byteLength" : 12156,
            "byteOffset" : 17292
        },
        {
            "buffer" : 0,
            "byteLength" : 16208,
            "byteOffset" : 29448
        },
        {
            "buffer" : 0,
            "byteLength" : 8104,
            "byteOffset" : 45656
        },
        {
            "buffer" : 0,
            "byteLength" : 2832,
            "byteOffset" : 53760
        },
        {
            "buffer" : 0,
            "byteLength" : 19296,
            "byteOffset" : 56592
        },
        {
            "buffer" : 0,
            "byteLength" : 19296,
            "byteOffset" : 75888
        },
        {
            "buffer" : 0,
            "byteLength" : 25728,
            "byteOffset" : 95184
        },
        {
            "buffer" : 0,
            "byteLength" : 12864,
            "byteOffset" : 120912
        },
        {
            "buffer" : 0,
            "byteLength" : 3336,
            "byteOffset" : 133776
        },
        {
            "buffer" : 0,
            "byteLength" : 42624,
            "byteOffset" : 137112
        },
        {
            "buffer" : 0,
            "byteLength" : 42624,
            "byteOffset" : 179736
        },
        {
            "buffer" : 0,
            "byteLength" : 56832,
            "byteOffset" : 222360
        },
        {
            "buffer" : 0,
            "byteLength" : 28416,
            "byteOffset" : 279192
        },
        {
            "buffer" : 0,
            "byteLength" : 10656,
            "byteOffset" : 307608
        },
        {
            "buffer" : 0,
            "byteLength" : 2304,
            "byteOffset" : 318264
        },
        {
            "buffer" : 0,
            "byteLength" : 2304,
            "byteOffset" : 320568
        },
        {
            "buffer" : 0,
            "byteLength" : 1536,
            "byteOffset" : 322872
        },
        {
            "buffer" : 0,
            "byteLength" : 744,
            "byteOffset" : 324408
        },
        {
            "buffer" : 0,
            "byteLength" : 23040,
            "byteOffset" : 325152
        },
        {
            "buffer" : 0,
            "byteLength" : 23040,
            "byteOffset" : 348192
        },
        {
            "buffer" : 0,
            "byteLength" : 15360,
            "byteOffset" : 371232
        },
        {
            "buffer" : 0,
            "byteLength" : 6096,
            "byteOffset" : 386592
        },
        {
            "buffer" : 0,
            "byteLength" : 4656,
            "byteOffset" : 392688
        },
        {
            "buffer" : 0,
            "byteLength" : 4656,
            "byteOffset" : 397344
        },
        {
            "buffer" : 0,
            "byteLength" : 3104,
            "byteOffset" : 402000
        },
        {
            "buffer" : 0,
            "byteLength" : 1488,
            "byteOffset" : 405104
        }
    ],
    "buffers" : [
        {
            "byteLength" : 406592,
            "uri" : "data:application/octet-stream;base64,"
        }
    ]
}
