{
    "asset" : {
        "generator" : "Khronos glTF Blender I/O v1.6.16",
        "version" : "2.0"
    },
    "scene" : 0,
    "scenes" : [
        {
            "name" : "Scene",
            "nodes" : [
                3,
                4,
                5,
                6,
                7
            ]
        }
    ],
    "nodes" : [
        {
            "name" : "Bone",
            "rotation" : [
                -0.017683207988739014,
                0,
                0,
                0.9998436570167542
            ],
            "translation" : [
                0,
                5.627377049677307e-06,
                1.3160590242478065e-05
            ]
        },
        {
            "name" : "Bone.001",
            "translation" : [
                0,
                -2.6148836612701416,
                2.697700023651123
            ]
        },
        {
            "name" : "Bone.002",
            "translation" : [
                3.1812360286712646,
                -1.7000571489334106,
                0.7783927321434021
            ]
        },
        {
            "children" : [
                0,
                1,
                2
            ],
            "name" : "Armature",
            "scale" : [
                4.125346660614014,
                4.125346660614014,
                4.125346660614014
            ],
            "translation" : [
                136.6100616455078,
                682.217529296875,
                331.7803955078125
            ]
        },
        {
            "mesh" : 0,
            "name" : "Cylinder.018",
            "rotation" : [
                -0.5,
                0.5,
                -0.4999999701976776,
                0.5
            ],
            "translation" : [
                106.27446746826172,
                591.3155517578125,
                -123.79681396484375
            ]
        },
        {
            "mesh" : 1,
            "name" : "Cylinder.019",
            "rotation" : [
                -0.7612577080726624,
                0,
                0,
                0.6484494805335999
            ],
            "scale" : [
                3.2074708938598633,
                3.2074708938598633,
                3.2074708938598633
            ],
            "translation" : [
                170.49188232421875,
                582.1348266601562,
                -16.99147605895996
            ]
        },
        {
            "mesh" : 2,
            "name" : "Plane.015",
            "translation" : [
                110.861328125,
                591.6746826171875,
                -111.71185302734375
            ]
        },
        {
            "mesh" : 3,
            "name" : "Cylinder.020",
            "rotation" : [
                -0.42623287439346313,
                0.44228410720825195,
                -0.60819011926651,
                0.5028071999549866
            ],
            "scale" : [
                0.5626192092895508,
                0.5626193284988403,
                0.5626192688941956
            ],
            "translation" : [
                188.32241821289062,
                582.3247680664062,
                -58.22472381591797
            ]
        }
    ],
    "materials" : [
        {
            "doubleSided" : true,
            "name" : "Material.043",
            "pbrMetallicRoughness" : {
                "baseColorFactor" : [
                    0.04274330288171768,
                    0.15827791392803192,
                    0.4969214200973511,
                    1
                ],
                "metallicFactor" : 0,
                "roughnessFactor" : 0.5
            }
        },
        {
            "doubleSided" : true,
            "name" : "Metal_Pinzas.002",
            "pbrMetallicRoughness" : {
                "baseColorFactor" : [
                    0.3467041552066803,
                    0.3324515223503113,
                    0.3094690144062042,
                    1
                ],
                "roughnessFactor" : 0.19090911746025085
            }
        },
        {
            "doubleSided" : true,
            "name" : "color_monopolar_blanco.001",
            "pbrMetallicRoughness" : {
                "baseColorFactor" : [
                    0.800000011920929,
                    0.800000011920929,
                    0.800000011920929,
                    1
                ],
                "metallicFactor" : 0.1037735864520073,
                "roughnessFactor" : 0.6226415634155273
            }
        },
        {
            "doubleSided" : true,
            "name" : "coor_monopolar_azul.001",
            "pbrMetallicRoughness" : {
                "baseColorFactor" : [
                    0.029556844383478165,
                    0.1384316384792328,
                    0.3967553675174713,
                    1
                ],
                "metallicFactor" : 0,
                "roughnessFactor" : 0.5
            }
        },
        {
            "doubleSided" : true,
            "name" : "coor_monopolar_azul",
            "pbrMetallicRoughness" : {
                "baseColorFactor" : [
                    0.029556844383478165,
                    0.1384316384792328,
                    0.3967553675174713,
                    1
                ],
                "metallicFactor" : 0,
                "roughnessFactor" : 0.5
            }
        }
    ],
    "meshes" : [
        {
            "name" : "Cylinder.016",
            "primitives" : [
                {
                    "attributes" : {
                        "POSITION" : 0,
                        "NORMAL" : 1,
                        "TEXCOORD_0" : 2
                    },
                    "indices" : 3,
                    "material" : 0
                }
            ]
        },
        {
            "name" : "Cylinder.020",
            "primitives" : [
                {
                    "attributes" : {
                        "POSITION" : 4,
                        "NORMAL" : 5,
                        "TANGENT" : 6,
                        "TEXCOORD_0" : 7
                    },
                    "indices" : 8,
                    "material" : 1
                },
                {
                    "attributes" : {
                        "POSITION" : 9,
                        "NORMAL" : 10,
                        "TANGENT" : 11,
                        "TEXCOORD_0" : 12
                    },
                    "indices" : 13,
                    "material" : 2
                },
                {
                    "attributes" : {
                        "POSITION" : 14,
                        "NORMAL" : 15,
                        "TANGENT" : 16,
                        "TEXCOORD_0" : 17
                    },
                    "indices" : 18,
                    "material" : 3
                }
            ]
        },
        {
            "name" : "Plane.015",
            "primitives" : [
                {
                    "attributes" : {
                        "POSITION" : 19,
                        "NORMAL" : 20,
                        "TANGENT" : 21,
                        "TEXCOORD_0" : 22
                    },
                    "indices" : 23,
                    "material" : 4
                }
            ]
        },
        {
            "name" : "Cylinder.021",
            "primitives" : [
                {
                    "attributes" : {
                        "POSITION" : 24,
                        "NORMAL" : 25,
                        "TEXCOORD_0" : 26
                    },
                    "indices" : 27,
                    "material" : 4
                }
            ]
        }
    ],
    "accessors" : [
        {
            "bufferView" : 0,
            "componentType" : 5126,
            "count" : 5576,
            "max" : [
                1.392327904701233,
                1.871429204940796,
                11.621243476867676
            ],
            "min" : [
                -2.239459991455078,
                -11.41695499420166,
                -2.7418839931488037
            ],
            "type" : "VEC3"
        },
        {
            "bufferView" : 1,
            "componentType" : 5126,
            "count" : 5576,
            "type" : "VEC3"
        },
        {
            "bufferView" : 2,
            "componentType" : 5126,
            "count" : 5576,
            "type" : "VEC2"
        },
        {
            "bufferView" : 3,
            "componentType" : 5123,
            "count" : 8628,
            "type" : "SCALAR"
        },
        {
            "bufferView" : 4,
            "componentType" : 5126,
            "count" : 196,
            "max" : [
                0.712043046951294,
                1.4320837259292603,
                0.3465428352355957
            ],
            "min" : [
                -0.017313718795776367,
                0.0010678768157958984,
                -0.022592991590499878
            ],
            "type" : "VEC3"
        },
        {
            "bufferView" : 5,
            "componentType" : 5126,
            "count" : 196,
            "type" : "VEC3"
        },
        {
            "bufferView" : 6,
            "componentType" : 5126,
            "count" : 196,
            "type" : "VEC4"
        },
        {
            "bufferView" : 7,
            "componentType" : 5126,
            "count" : 196,
            "type" : "VEC2"
        },
        {
            "bufferView" : 8,
            "componentType" : 5123,
            "count" : 756,
            "type" : "SCALAR"
        },
        {
            "bufferView" : 9,
            "componentType" : 5126,
            "count" : 227,
            "max" : [
                5.8545637130737305,
                12.769036293029785,
                2.378025531768799
            ],
            "min" : [
                0.7147219181060791,
                1.8199659585952759,
                0.16202116012573242
            ],
            "type" : "VEC3"
        },
        {
            "bufferView" : 10,
            "componentType" : 5126,
            "count" : 227,
            "type" : "VEC3"
        },
        {
            "bufferView" : 11,
            "componentType" : 5126,
            "count" : 227,
            "type" : "VEC4"
        },
        {
            "bufferView" : 12,
            "componentType" : 5126,
            "count" : 227,
            "type" : "VEC2"
        },
        {
            "bufferView" : 13,
            "componentType" : 5123,
            "count" : 864,
            "type" : "SCALAR"
        },
        {
            "bufferView" : 14,
            "componentType" : 5126,
            "count" : 1284,
            "max" : [
                2.637803792953491,
                6.302679061889648,
                1.6169590950012207
            ],
            "min" : [
                0.5076091289520264,
                1.3305555582046509,
                0.1316227912902832
            ],
            "type" : "VEC3"
        },
        {
            "bufferView" : 15,
            "componentType" : 5126,
            "count" : 1284,
            "type" : "VEC3"
        },
        {
            "bufferView" : 16,
            "componentType" : 5126,
            "count" : 1284,
            "type" : "VEC4"
        },
        {
            "bufferView" : 17,
            "componentType" : 5126,
            "count" : 1284,
            "type" : "VEC2"
        },
        {
            "bufferView" : 18,
            "componentType" : 5123,
            "count" : 1296,
            "type" : "SCALAR"
        },
        {
            "bufferView" : 19,
            "componentType" : 5126,
            "count" : 2352,
            "max" : [
                78.04206085205078,
                0.37999996542930603,
                53.407135009765625
            ],
            "min" : [
                -0.24178358912467957,
                -10.992447853088379,
                -1.190508246421814
            ],
            "type" : "VEC3"
        },
        {
            "bufferView" : 20,
            "componentType" : 5126,
            "count" : 2352,
            "type" : "VEC3"
        },
        {
            "bufferView" : 21,
            "componentType" : 5126,
            "count" : 2352,
            "type" : "VEC4"
        },
        {
            "bufferView" : 22,
            "componentType" : 5126,
            "count" : 2352,
            "type" : "VEC2"
        },
        {
            "bufferView" : 23,
            "componentType" : 5123,
            "count" : 3528,
            "type" : "SCALAR"
        },
        {
            "bufferView" : 24,
            "componentType" : 5126,
            "count" : 192,
            "max" : [
                1,
                1,
                1
            ],
            "min" : [
                -1,
                -1,
                -1
            ],
            "type" : "VEC3"
        },
        {
            "bufferView" : 25,
            "componentType" : 5126,
            "count" : 192,
            "type" : "VEC3"
        },
        {
            "bufferView" : 26,
            "componentType" : 5126,
            "count" : 192,
            "type" : "VEC2"
        },
        {
            "bufferView" : 27,
            "componentType" : 5123,
            "count" : 372,
            "type" : "SCALAR"
        }
    ],
    "bufferViews" : [
        {
            "buffer" : 0,
            "byteLength" : 66912,
            "byteOffset" : 0
        },
        {
            "buffer" : 0,
            "byteLength" : 66912,
            "byteOffset" : 66912
        },
        {
            "buffer" : 0,
            "byteLength" : 44608,
            "byteOffset" : 133824
        },
        {
            "buffer" : 0,
            "byteLength" : 17256,
            "byteOffset" : 178432
        },
        {
            "buffer" : 0,
            "byteLength" : 2352,
            "byteOffset" : 195688
        },
        {
            "buffer" : 0,
            "byteLength" : 2352,
            "byteOffset" : 198040
        },
        {
            "buffer" : 0,
            "byteLength" : 3136,
            "byteOffset" : 200392
        },
        {
            "buffer" : 0,
            "byteLength" : 1568,
            "byteOffset" : 203528
        },
        {
            "buffer" : 0,
            "byteLength" : 1512,
            "byteOffset" : 205096
        },
        {
            "buffer" : 0,
            "byteLength" : 2724,
            "byteOffset" : 206608
        },
        {
            "buffer" : 0,
            "byteLength" : 2724,
            "byteOffset" : 209332
        },
        {
            "buffer" : 0,
            "byteLength" : 3632,
            "byteOffset" : 212056
        },
        {
            "buffer" : 0,
            "byteLength" : 1816,
            "byteOffset" : 215688
        },
        {
            "buffer" : 0,
            "byteLength" : 1728,
            "byteOffset" : 217504
        },
        {
            "buffer" : 0,
            "byteLength" : 15408,
            "byteOffset" : 219232
        },
        {
            "buffer" : 0,
            "byteLength" : 15408,
            "byteOffset" : 234640
        },
        {
            "buffer" : 0,
            "byteLength" : 20544,
            "byteOffset" : 250048
        },
        {
            "buffer" : 0,
            "byteLength" : 10272,
            "byteOffset" : 270592
        },
        {
            "buffer" : 0,
            "byteLength" : 2592,
            "byteOffset" : 280864
        },
        {
            "buffer" : 0,
            "byteLength" : 28224,
            "byteOffset" : 283456
        },
        {
            "buffer" : 0,
            "byteLength" : 28224,
            "byteOffset" : 311680
        },
        {
            "buffer" : 0,
            "byteLength" : 37632,
            "byteOffset" : 339904
        },
        {
            "buffer" : 0,
            "byteLength" : 18816,
            "byteOffset" : 377536
        },
        {
            "buffer" : 0,
            "byteLength" : 7056,
            "byteOffset" : 396352
        },
        {
            "buffer" : 0,
            "byteLength" : 2304,
            "byteOffset" : 403408
        },
        {
            "buffer" : 0,
            "byteLength" : 2304,
            "byteOffset" : 405712
        },
        {
            "buffer" : 0,
            "byteLength" : 1536,
            "byteOffset" : 408016
        },
        {
            "buffer" : 0,
            "byteLength" : 744,
            "byteOffset" : 409552
        }
    ],
    "buffers" : [
        {
            "byteLength" : 410296,
            "uri" : "data:application/octet-stream;base64,"
        }
    ]
}
