{
    "asset" : {
        "generator" : "Khronos glTF Blender I/O v1.6.16",
        "version" : "2.0"
    },
    "scene" : 0,
    "scenes" : [
        {
            "name" : "Scene",
            "nodes" : [
                0,
                1,
                2,
                3,
                4
            ]
        }
    ],
    "nodes" : [
        {
            "mesh" : 0,
            "name" : "Plane",
            "rotation" : [
                0,
                -0.999433159828186,
                0,
                -0.0336686372756958
            ],
            "scale" : [
                1,
                1,
                1.0827007293701172
            ],
            "translation" : [
                -3.4464988708496094,
                16.2996826171875,
                -5.37176513671875
            ]
        },
        {
            "mesh" : 1,
            "name" : "Parte cable asegurador.004",
            "rotation" : [
                0.7310492992401123,
                -0.016666941344738007,
                0.016052639111876488,
                0.6819322109222412
            ],
            "scale" : [
                -0.049523357301950455,
                -0.12621675431728363,
                -0.03883175179362297
            ],
            "translation" : [
                -3.6494293212890625,
                16.340087890625,
                -3.103118896484375
            ]
        },
        {
            "mesh" : 2,
            "name" : "Conectorpaciente.001",
            "rotation" : [
                0,
                -1,
                0,
                4.371138828673793e-08
            ],
            "scale" : [
                -0.13361856341362,
                -0.04062550887465477,
                0.11135780066251755
            ],
            "translation" : [
                -14.022464752197266,
                17.7579345703125,
                7.8732452392578125
            ]
        },
        {
            "mesh" : 3,
            "name" : "Cylinder.001",
            "rotation" : [
                0,
                0.7071068286895752,
                -0.7071068286895752,
                -1.306566446146462e-07
            ],
            "scale" : [
                0.06273064762353897,
                0.06273064762353897,
                0.06273064762353897
            ],
            "translation" : [
                -3.5945677757263184,
                16.255544662475586,
                -2.731924533843994
            ]
        },
        {
            "mesh" : 4,
            "name" : "Plane.004",
            "scale" : [
                0.06560707092285156,
                0.06560707092285156,
                0.06560707092285156
            ],
            "translation" : [
                -3.6008124351501465,
                16.240530014038086,
                -2.630793809890747
            ]
        }
    ],
    "materials" : [
        {
            "doubleSided" : true,
            "name" : "Material",
            "pbrMetallicRoughness" : {
                "baseColorFactor" : [
                    0.3613068759441376,
                    0.34191450476646423,
                    0.30946895480155945,
                    1
                ],
                "metallicFactor" : 0,
                "roughnessFactor" : 0.5
            }
        },
        {
            "doubleSided" : true,
            "name" : "Material.010",
            "pbrMetallicRoughness" : {
                "baseColorFactor" : [
                    0.016807381063699722,
                    0.2015562802553177,
                    0.026241226121783257,
                    1
                ],
                "metallicFactor" : 0,
                "roughnessFactor" : 0.5
            }
        },
        {
            "doubleSided" : true,
            "name" : "Material.040",
            "pbrMetallicRoughness" : {
                "baseColorFactor" : [
                    0.658375084400177,
                    0.07421348989009857,
                    0.026241237297654152,
                    1
                ],
                "metallicFactor" : 0,
                "roughnessFactor" : 0.5
            }
        },
        {
            "doubleSided" : true,
            "name" : "Material.036",
            "pbrMetallicRoughness" : {
                "baseColorFactor" : [
                    0.39157265424728394,
                    0.2746773362159729,
                    0.15592654049396515,
                    1
                ],
                "metallicFactor" : 0,
                "roughnessFactor" : 0.5
            }
        },
        {
            "doubleSided" : true,
            "name" : "Material.035",
            "pbrMetallicRoughness" : {
                "baseColorFactor" : [
                    0.050984419882297516,
                    0.050984419882297516,
                    0.050984419882297516,
                    1
                ],
                "metallicFactor" : 0,
                "roughnessFactor" : 0.5
            }
        },
        {
            "doubleSided" : true,
            "name" : "gabinete_abajo",
            "pbrMetallicRoughness" : {
                "baseColorFactor" : [
                    0,
                    0,
                    0,
                    1
                ],
                "metallicFactor" : 0,
                "roughnessFactor" : 0.5
            }
        }
    ],
    "meshes" : [
        {
            "name" : "Plane.001",
            "primitives" : [
                {
                    "attributes" : {
                        "POSITION" : 0,
                        "NORMAL" : 1,
                        "TEXCOORD_0" : 2
                    },
                    "indices" : 3,
                    "material" : 0
                },
                {
                    "attributes" : {
                        "POSITION" : 4,
                        "NORMAL" : 5,
                        "TEXCOORD_0" : 6
                    },
                    "indices" : 7,
                    "material" : 1
                }
            ]
        },
        {
            "name" : "Cilindro.008",
            "primitives" : [
                {
                    "attributes" : {
                        "POSITION" : 8,
                        "NORMAL" : 9,
                        "TEXCOORD_0" : 10
                    },
                    "indices" : 11,
                    "material" : 2
                },
                {
                    "attributes" : {
                        "POSITION" : 12,
                        "NORMAL" : 13,
                        "TEXCOORD_0" : 14
                    },
                    "indices" : 15,
                    "material" : 3
                }
            ]
        },
        {
            "name" : "Cubo.004",
            "primitives" : [
                {
                    "attributes" : {
                        "POSITION" : 16,
                        "NORMAL" : 17,
                        "TEXCOORD_0" : 18
                    },
                    "indices" : 19,
                    "material" : 4
                }
            ]
        },
        {
            "name" : "Cylinder.002",
            "primitives" : [
                {
                    "attributes" : {
                        "POSITION" : 20,
                        "NORMAL" : 21,
                        "TEXCOORD_0" : 22
                    },
                    "indices" : 23,
                    "material" : 5
                }
            ]
        },
        {
            "name" : "Plane.013",
            "primitives" : [
                {
                    "attributes" : {
                        "POSITION" : 24,
                        "NORMAL" : 25,
                        "TEXCOORD_0" : 26
                    },
                    "indices" : 27,
                    "material" : 5
                }
            ]
        }
    ],
    "accessors" : [
        {
            "bufferView" : 0,
            "componentType" : 5126,
            "count" : 633,
            "max" : [
                1.0133483409881592,
                0.041495613753795624,
                1.0143036842346191
            ],
            "min" : [
                -1.014599084854126,
                -0.11737581342458725,
                -2.117161273956299
            ],
            "type" : "VEC3"
        },
        {
            "bufferView" : 1,
            "componentType" : 5126,
            "count" : 633,
            "type" : "VEC3"
        },
        {
            "bufferView" : 2,
            "componentType" : 5126,
            "count" : 633,
            "type" : "VEC2"
        },
        {
            "bufferView" : 3,
            "componentType" : 5123,
            "count" : 1227,
            "type" : "SCALAR"
        },
        {
            "bufferView" : 4,
            "componentType" : 5126,
            "count" : 45,
            "max" : [
                0.7930259704589844,
                0.039399828761816025,
                0.7928163409233093
            ],
            "min" : [
                -0.7953544855117798,
                0.011611155234277248,
                -2.117161273956299
            ],
            "type" : "VEC3"
        },
        {
            "bufferView" : 5,
            "componentType" : 5126,
            "count" : 45,
            "type" : "VEC3"
        },
        {
            "bufferView" : 6,
            "componentType" : 5126,
            "count" : 45,
            "type" : "VEC2"
        },
        {
            "bufferView" : 7,
            "componentType" : 5123,
            "count" : 117,
            "type" : "SCALAR"
        },
        {
            "bufferView" : 8,
            "componentType" : 5126,
            "count" : 500,
            "max" : [
                3.4773101806640625,
                8.271429061889648,
                0.20401883125305176
            ],
            "min" : [
                -6.955169677734375,
                -0.10043907165527344,
                -1.8908514976501465
            ],
            "type" : "VEC3"
        },
        {
            "bufferView" : 9,
            "componentType" : 5126,
            "count" : 500,
            "type" : "VEC3"
        },
        {
            "bufferView" : 10,
            "componentType" : 5126,
            "count" : 500,
            "type" : "VEC2"
        },
        {
            "bufferView" : 11,
            "componentType" : 5123,
            "count" : 516,
            "type" : "SCALAR"
        },
        {
            "bufferView" : 12,
            "componentType" : 5126,
            "count" : 4828,
            "max" : [
                5.679969787597656,
                7.318183422088623,
                0.41580772399902344
            ],
            "min" : [
                -9.15167236328125,
                -2.555814743041992,
                -4.377884864807129
            ],
            "type" : "VEC3"
        },
        {
            "bufferView" : 13,
            "componentType" : 5126,
            "count" : 4828,
            "type" : "VEC3"
        },
        {
            "bufferView" : 14,
            "componentType" : 5126,
            "count" : 4828,
            "type" : "VEC2"
        },
        {
            "bufferView" : 15,
            "componentType" : 5123,
            "count" : 6120,
            "type" : "SCALAR"
        },
        {
            "bufferView" : 16,
            "componentType" : 5126,
            "count" : 1147,
            "max" : [
                0.9999980926513672,
                1,
                4.231905460357666
            ],
            "min" : [
                -1.0000019073486328,
                -1,
                -0.9999923706054688
            ],
            "type" : "VEC3"
        },
        {
            "bufferView" : 17,
            "componentType" : 5126,
            "count" : 1147,
            "type" : "VEC3"
        },
        {
            "bufferView" : 18,
            "componentType" : 5126,
            "count" : 1147,
            "type" : "VEC2"
        },
        {
            "bufferView" : 19,
            "componentType" : 5123,
            "count" : 1272,
            "type" : "SCALAR"
        },
        {
            "bufferView" : 20,
            "componentType" : 5126,
            "count" : 192,
            "max" : [
                1.000000238418579,
                1,
                1
            ],
            "min" : [
                -1,
                -1.613377571105957,
                -1
            ],
            "type" : "VEC3"
        },
        {
            "bufferView" : 21,
            "componentType" : 5126,
            "count" : 192,
            "type" : "VEC3"
        },
        {
            "bufferView" : 22,
            "componentType" : 5126,
            "count" : 192,
            "type" : "VEC2"
        },
        {
            "bufferView" : 23,
            "componentType" : 5123,
            "count" : 372,
            "type" : "SCALAR"
        },
        {
            "bufferView" : 24,
            "componentType" : 5126,
            "count" : 1176,
            "max" : [
                0.5454505085945129,
                23.87898063659668,
                152.65419006347656
            ],
            "min" : [
                -159.42640686035156,
                -10.142393112182617,
                -0.07766546308994293
            ],
            "type" : "VEC3"
        },
        {
            "bufferView" : 25,
            "componentType" : 5126,
            "count" : 1176,
            "type" : "VEC3"
        },
        {
            "bufferView" : 26,
            "componentType" : 5126,
            "count" : 1176,
            "type" : "VEC2"
        },
        {
            "bufferView" : 27,
            "componentType" : 5123,
            "count" : 1764,
            "type" : "SCALAR"
        }
    ],
    "bufferViews" : [
        {
            "buffer" : 0,
            "byteLength" : 7596,
            "byteOffset" : 0
        },
        {
            "buffer" : 0,
            "byteLength" : 7596,
            "byteOffset" : 7596
        },
        {
            "buffer" : 0,
            "byteLength" : 5064,
            "byteOffset" : 15192
        },
        {
            "buffer" : 0,
            "byteLength" : 2454,
            "byteOffset" : 20256
        },
        {
            "buffer" : 0,
            "byteLength" : 540,
            "byteOffset" : 22712
        },
        {
            "buffer" : 0,
            "byteLength" : 540,
            "byteOffset" : 23252
        },
        {
            "buffer" : 0,
            "byteLength" : 360,
            "byteOffset" : 23792
        },
        {
            "buffer" : 0,
            "byteLength" : 234,
            "byteOffset" : 24152
        },
        {
            "buffer" : 0,
            "byteLength" : 6000,
            "byteOffset" : 24388
        },
        {
            "buffer" : 0,
            "byteLength" : 6000,
            "byteOffset" : 30388
        },
        {
            "buffer" : 0,
            "byteLength" : 4000,
            "byteOffset" : 36388
        },
        {
            "buffer" : 0,
            "byteLength" : 1032,
            "byteOffset" : 40388
        },
        {
            "buffer" : 0,
            "byteLength" : 57936,
            "byteOffset" : 41420
        },
        {
            "buffer" : 0,
            "byteLength" : 57936,
            "byteOffset" : 99356
        },
        {
            "buffer" : 0,
            "byteLength" : 38624,
            "byteOffset" : 157292
        },
        {
            "buffer" : 0,
            "byteLength" : 12240,
            "byteOffset" : 195916
        },
        {
            "buffer" : 0,
            "byteLength" : 13764,
            "byteOffset" : 208156
        },
        {
            "buffer" : 0,
            "byteLength" : 13764,
            "byteOffset" : 221920
        },
        {
            "buffer" : 0,
            "byteLength" : 9176,
            "byteOffset" : 235684
        },
        {
            "buffer" : 0,
            "byteLength" : 2544,
            "byteOffset" : 244860
        },
        {
            "buffer" : 0,
            "byteLength" : 2304,
            "byteOffset" : 247404
        },
        {
            "buffer" : 0,
            "byteLength" : 2304,
            "byteOffset" : 249708
        },
        {
            "buffer" : 0,
            "byteLength" : 1536,
            "byteOffset" : 252012
        },
        {
            "buffer" : 0,
            "byteLength" : 744,
            "byteOffset" : 253548
        },
        {
            "buffer" : 0,
            "byteLength" : 14112,
            "byteOffset" : 254292
        },
        {
            "buffer" : 0,
            "byteLength" : 14112,
            "byteOffset" : 268404
        },
        {
            "buffer" : 0,
            "byteLength" : 9408,
            "byteOffset" : 282516
        },
        {
            "buffer" : 0,
            "byteLength" : 3528,
            "byteOffset" : 291924
        }
    ],
    "buffers" : [
        {
            "byteLength" : 295452,
            "uri" : "data:application/octet-stream;base64,"
        }
    ]
}
