{
    "asset" : {
        "generator" : "Khronos glTF Blender I/O v1.6.16",
        "version" : "2.0"
    },
    "scene" : 0,
    "scenes" : [
        {
            "name" : "Scene",
            "nodes" : [
                0
            ]
        }
    ],
    "nodes" : [
        {
            "mesh" : 0,
            "name" : "Cube.009",
            "translation" : [
                -1.368931531906128,
                0.5148615837097168,
                -0.3488522171974182
            ]
        }
    ],
    "materials" : [
        {
            "doubleSided" : true,
            "name" : "Metal_Pinzas",
            "pbrMetallicRoughness" : {
                "baseColorFactor" : [
                    0.3467041552066803,
                    0.3324515223503113,
                    0.3094690144062042,
                    1
                ],
                "roughnessFactor" : 0.19090911746025085
            }
        },
        {
            "doubleSided" : true,
            "name" : "Material.028",
            "pbrMetallicRoughness" : {
                "baseColorFactor" : [
                    0.01850022003054619,
                    0.26225075125694275,
                    0.45641112327575684,
                    1
                ],
                "metallicFactor" : 0,
                "roughnessFactor" : 0.5
            }
        },
        {
            "doubleSided" : true,
            "name" : "Material.029",
            "pbrMetallicRoughness" : {
                "baseColorFactor" : [
                    0.05951124429702759,
                    0.13563336431980133,
                    0.21223078668117523,
                    1
                ],
                "metallicFactor" : 0,
                "roughnessFactor" : 0.5
            }
        }
    ],
    "meshes" : [
        {
            "name" : "Cube.053",
            "primitives" : [
                {
                    "attributes" : {
                        "POSITION" : 0,
                        "NORMAL" : 1,
                        "TEXCOORD_0" : 2
                    },
                    "indices" : 3,
                    "material" : 0
                },
                {
                    "attributes" : {
                        "POSITION" : 4,
                        "NORMAL" : 5,
                        "TEXCOORD_0" : 6
                    },
                    "indices" : 7,
                    "material" : 1
                },
                {
                    "attributes" : {
                        "POSITION" : 8,
                        "NORMAL" : 9,
                        "TEXCOORD_0" : 10
                    },
                    "indices" : 11,
                    "material" : 2
                }
            ]
        }
    ],
    "accessors" : [
        {
            "bufferView" : 0,
            "componentType" : 5126,
            "count" : 80,
            "max" : [
                0.5780644416809082,
                0.5912714004516602,
                0.23863419890403748
            ],
            "min" : [
                -0.04653596878051758,
                -0.08588314056396484,
                -0.24540603160858154
            ],
            "type" : "VEC3"
        },
        {
            "bufferView" : 1,
            "componentType" : 5126,
            "count" : 80,
            "type" : "VEC3"
        },
        {
            "bufferView" : 2,
            "componentType" : 5126,
            "count" : 80,
            "type" : "VEC2"
        },
        {
            "bufferView" : 3,
            "componentType" : 5123,
            "count" : 120,
            "type" : "SCALAR"
        },
        {
            "bufferView" : 4,
            "componentType" : 5126,
            "count" : 768,
            "max" : [
                4.906571388244629,
                8.740316390991211,
                0.6971598267555237
            ],
            "min" : [
                0.38716578483581543,
                0.4084768295288086,
                -0.2543753385543823
            ],
            "type" : "VEC3"
        },
        {
            "bufferView" : 5,
            "componentType" : 5126,
            "count" : 768,
            "type" : "VEC3"
        },
        {
            "bufferView" : 6,
            "componentType" : 5126,
            "count" : 768,
            "type" : "VEC2"
        },
        {
            "bufferView" : 7,
            "componentType" : 5123,
            "count" : 1416,
            "type" : "SCALAR"
        },
        {
            "bufferView" : 8,
            "componentType" : 5126,
            "count" : 1056,
            "max" : [
                6.389792442321777,
                10.547748565673828,
                0.9374028444290161
            ],
            "min" : [
                4.278644561767578,
                8.270856857299805,
                -0.23588359355926514
            ],
            "type" : "VEC3"
        },
        {
            "bufferView" : 9,
            "componentType" : 5126,
            "count" : 1056,
            "type" : "VEC3"
        },
        {
            "bufferView" : 10,
            "componentType" : 5126,
            "count" : 1056,
            "type" : "VEC2"
        },
        {
            "bufferView" : 11,
            "componentType" : 5123,
            "count" : 1668,
            "type" : "SCALAR"
        }
    ],
    "bufferViews" : [
        {
            "buffer" : 0,
            "byteLength" : 960,
            "byteOffset" : 0
        },
        {
            "buffer" : 0,
            "byteLength" : 960,
            "byteOffset" : 960
        },
        {
            "buffer" : 0,
            "byteLength" : 640,
            "byteOffset" : 1920
        },
        {
            "buffer" : 0,
            "byteLength" : 240,
            "byteOffset" : 2560
        },
        {
            "buffer" : 0,
            "byteLength" : 9216,
            "byteOffset" : 2800
        },
        {
            "buffer" : 0,
            "byteLength" : 9216,
            "byteOffset" : 12016
        },
        {
            "buffer" : 0,
            "byteLength" : 6144,
            "byteOffset" : 21232
        },
        {
            "buffer" : 0,
            "byteLength" : 2832,
            "byteOffset" : 27376
        },
        {
            "buffer" : 0,
            "byteLength" : 12672,
            "byteOffset" : 30208
        },
        {
            "buffer" : 0,
            "byteLength" : 12672,
            "byteOffset" : 42880
        },
        {
            "buffer" : 0,
            "byteLength" : 8448,
            "byteOffset" : 55552
        },
        {
            "buffer" : 0,
            "byteLength" : 3336,
            "byteOffset" : 64000
        }
    ],
    "buffers" : [
        {
            "byteLength" : 67336,
            "uri" : "data:application/octet-stream;base64,"
        }
    ]
}
