{
    "asset" : {
        "generator" : "Khronos glTF Blender I/O v1.6.16",
        "version" : "2.0"
    },
    "scene" : 0,
    "scenes" : [
        {
            "name" : "Scene",
            "nodes" : [
                0
            ]
        }
    ],
    "nodes" : [
        {
            "mesh" : 0,
            "name" : "Cylinder.005",
            "translation" : [
                -1.3267076015472412,
                2.7658112049102783,
                -0.5641112327575684
            ]
        }
    ],
    "materials" : [
        {
            "doubleSided" : true,
            "name" : "Metal_Pinzas",
            "pbrMetallicRoughness" : {
                "baseColorFactor" : [
                    0.3467041552066803,
                    0.3324515223503113,
                    0.3094690144062042,
                    1
                ],
                "roughnessFactor" : 0.19090911746025085
            }
        },
        {
            "doubleSided" : true,
            "name" : "color_monopolar_blanco",
            "pbrMetallicRoughness" : {
                "baseColorFactor" : [
                    0.800000011920929,
                    0.800000011920929,
                    0.800000011920929,
                    1
                ],
                "metallicFactor" : 0.1037735864520073,
                "roughnessFactor" : 0.6226415634155273
            }
        },
        {
            "doubleSided" : true,
            "name" : "coor_monopolar_azul",
            "pbrMetallicRoughness" : {
                "baseColorFactor" : [
                    0.029556844383478165,
                    0.1384316384792328,
                    0.3967553675174713,
                    1
                ],
                "metallicFactor" : 0,
                "roughnessFactor" : 0.5
            }
        }
    ],
    "meshes" : [
        {
            "name" : "Cylinder.011",
            "primitives" : [
                {
                    "attributes" : {
                        "POSITION" : 0,
                        "NORMAL" : 1,
                        "TEXCOORD_0" : 2
                    },
                    "indices" : 3,
                    "material" : 0
                },
                {
                    "attributes" : {
                        "POSITION" : 4,
                        "NORMAL" : 5,
                        "TEXCOORD_0" : 6
                    },
                    "indices" : 7,
                    "material" : 1
                },
                {
                    "attributes" : {
                        "POSITION" : 8,
                        "NORMAL" : 9,
                        "TEXCOORD_0" : 10
                    },
                    "indices" : 11,
                    "material" : 2
                }
            ]
        }
    ],
    "accessors" : [
        {
            "bufferView" : 0,
            "componentType" : 5126,
            "count" : 196,
            "max" : [
                0.712043046951294,
                1.4320837259292603,
                0.3465428352355957
            ],
            "min" : [
                -0.017313718795776367,
                0.0010678768157958984,
                -0.022592991590499878
            ],
            "type" : "VEC3"
        },
        {
            "bufferView" : 1,
            "componentType" : 5126,
            "count" : 196,
            "type" : "VEC3"
        },
        {
            "bufferView" : 2,
            "componentType" : 5126,
            "count" : 196,
            "type" : "VEC2"
        },
        {
            "bufferView" : 3,
            "componentType" : 5123,
            "count" : 756,
            "type" : "SCALAR"
        },
        {
            "bufferView" : 4,
            "componentType" : 5126,
            "count" : 216,
            "max" : [
                5.8545637130737305,
                12.769036293029785,
                2.378025531768799
            ],
            "min" : [
                0.7147219181060791,
                1.8199659585952759,
                0.16202116012573242
            ],
            "type" : "VEC3"
        },
        {
            "bufferView" : 5,
            "componentType" : 5126,
            "count" : 216,
            "type" : "VEC3"
        },
        {
            "bufferView" : 6,
            "componentType" : 5126,
            "count" : 216,
            "type" : "VEC2"
        },
        {
            "bufferView" : 7,
            "componentType" : 5123,
            "count" : 864,
            "type" : "SCALAR"
        },
        {
            "bufferView" : 8,
            "componentType" : 5126,
            "count" : 808,
            "max" : [
                2.637803792953491,
                6.302679061889648,
                1.6169590950012207
            ],
            "min" : [
                0.5076091289520264,
                1.3305555582046509,
                0.1316227912902832
            ],
            "type" : "VEC3"
        },
        {
            "bufferView" : 9,
            "componentType" : 5126,
            "count" : 808,
            "type" : "VEC3"
        },
        {
            "bufferView" : 10,
            "componentType" : 5126,
            "count" : 808,
            "type" : "VEC2"
        },
        {
            "bufferView" : 11,
            "componentType" : 5123,
            "count" : 1296,
            "type" : "SCALAR"
        }
    ],
    "bufferViews" : [
        {
            "buffer" : 0,
            "byteLength" : 2352,
            "byteOffset" : 0
        },
        {
            "buffer" : 0,
            "byteLength" : 2352,
            "byteOffset" : 2352
        },
        {
            "buffer" : 0,
            "byteLength" : 1568,
            "byteOffset" : 4704
        },
        {
            "buffer" : 0,
            "byteLength" : 1512,
            "byteOffset" : 6272
        },
        {
            "buffer" : 0,
            "byteLength" : 2592,
            "byteOffset" : 7784
        },
        {
            "buffer" : 0,
            "byteLength" : 2592,
            "byteOffset" : 10376
        },
        {
            "buffer" : 0,
            "byteLength" : 1728,
            "byteOffset" : 12968
        },
        {
            "buffer" : 0,
            "byteLength" : 1728,
            "byteOffset" : 14696
        },
        {
            "buffer" : 0,
            "byteLength" : 9696,
            "byteOffset" : 16424
        },
        {
            "buffer" : 0,
            "byteLength" : 9696,
            "byteOffset" : 26120
        },
        {
            "buffer" : 0,
            "byteLength" : 6464,
            "byteOffset" : 35816
        },
        {
            "buffer" : 0,
            "byteLength" : 2592,
            "byteOffset" : 42280
        }
    ],
    "buffers" : [
        {
            "byteLength" : 44872,
            "uri" : "data:application/octet-stream;base64,"
        }
    ]
}
