{
    "asset" : {
        "generator" : "Khronos glTF Blender I/O v1.6.16",
        "version" : "2.0"
    },
    "scene" : 0,
    "scenes" : [
        {
            "name" : "Scene",
            "nodes" : [
                0
            ]
        }
    ],
    "nodes" : [
        {
            "mesh" : 0,
            "name" : "Cylinder",
            "scale" : [
                16.51227569580078,
                51.31410217285156,
                16.51227569580078
            ],
            "translation" : [
                -20.677045822143555,
                8.891414642333984,
                -4.997896671295166
            ]
        }
    ],
    "materials" : [
        {
            "alphaMode" : "BLEND",
            "doubleSided" : true,
            "emissiveFactor" : [
                1,
                1,
                1
            ],
            "emissiveTexture" : {
                "index" : 0
            },
            "name" : "Material",
            "pbrMetallicRoughness" : {}
        }
    ],
    "meshes" : [
        {
            "name" : "Cylinder",
            "primitives" : [
                {
                    "attributes" : {
                        "POSITION" : 0,
                        "NORMAL" : 1,
                        "TEXCOORD_0" : 2
                    },
                    "indices" : 3,
                    "material" : 0
                }
            ]
        }
    ],
    "textures" : [
        {
            "sampler" : 0,
            "source" : 0
        }
    ],
    "images" : [
        {
            "bufferView" : 4,
            "mimeType" : "image/jpeg",
            "name" : "Hologram_poster2"
        }
    ],
    "accessors" : [
        {
            "bufferView" : 0,
            "componentType" : 5126,
            "count" : 3828,
            "max" : [
                0.9989259839057922,
                0.03915905952453613,
                0.998926043510437
            ],
            "min" : [
                -0.9989261627197266,
                -0.03219139948487282,
                -0.998926043510437
            ],
            "type" : "VEC3"
        },
        {
            "bufferView" : 1,
            "componentType" : 5126,
            "count" : 3828,
            "type" : "VEC3"
        },
        {
            "bufferView" : 2,
            "componentType" : 5126,
            "count" : 3828,
            "type" : "VEC2"
        },
        {
            "bufferView" : 3,
            "componentType" : 5123,
            "count" : 5754,
            "type" : "SCALAR"
        }
    ],
    "bufferViews" : [
        {
            "buffer" : 0,
            "byteLength" : 45936,
            "byteOffset" : 0
        },
        {
            "buffer" : 0,
            "byteLength" : 45936,
            "byteOffset" : 45936
        },
        {
            "buffer" : 0,
            "byteLength" : 30624,
            "byteOffset" : 91872
        },
        {
            "buffer" : 0,
            "byteLength" : 11508,
            "byteOffset" : 122496
        },
        {
            "buffer" : 0,
            "byteLength" : 16013,
            "byteOffset" : 134004
        }
    ],
    "samplers" : [
        {
            "magFilter" : 9729,
            "minFilter" : 9987
        }
    ],
    "buffers" : [
        {
            "byteLength" : 150020,
            "uri" : "data:application/octet-stream;base64,"
        }
    ]
}
