{
    "asset" : {
        "generator" : "Khronos glTF Blender I/O v1.6.16",
        "version" : "2.0"
    },
    "scene" : 0,
    "scenes" : [
        {
            "name" : "Scene",
            "nodes" : [
                3,
                4,
                5
            ]
        }
    ],
    "nodes" : [
        {
            "name" : "Bone",
            "rotation" : [
                -0.017683207988739014,
                0,
                0,
                0.9998436570167542
            ],
            "translation" : [
                0,
                5.627377049677307e-06,
                1.3160590242478065e-05
            ]
        },
        {
            "name" : "Bone.001",
            "translation" : [
                0,
                -2.6148836612701416,
                2.697700023651123
            ]
        },
        {
            "name" : "Bone.002",
            "translation" : [
                3.1812360286712646,
                -1.7000571489334106,
                0.7783927321434021
            ]
        },
        {
            "children" : [
                0,
                1,
                2
            ],
            "name" : "Armature",
            "scale" : [
                4.125346660614014,
                4.125346660614014,
                4.125346660614014
            ],
            "translation" : [
                136.6100616455078,
                682.217529296875,
                331.7803955078125
            ]
        },
        {
            "mesh" : 0,
            "name" : "Plane.018",
            "translation" : [
                76.3946533203125,
                607.020751953125,
                -232.2250518798828
            ]
        },
        {
            "mesh" : 1,
            "name" : "Cube.042",
            "rotation" : [
                0.7071068286895752,
                -0.7071068286895752,
                0,
                1.1520234011186403e-07
            ],
            "translation" : [
                232.98519897460938,
                408.7380065917969,
                -626.3023681640625
            ]
        }
    ],
    "materials" : [
        {
            "doubleSided" : true,
            "name" : "Material.012",
            "pbrMetallicRoughness" : {
                "baseColorFactor" : [
                    0,
                    0,
                    0,
                    1
                ],
                "metallicFactor" : 0,
                "roughnessFactor" : 0.6045454740524292
            }
        },
        {
            "doubleSided" : true,
            "name" : "Material_metal_entorno",
            "normalTexture" : {
                "index" : 0,
                "scale" : 0.19999998807907104
            },
            "pbrMetallicRoughness" : {
                "baseColorFactor" : [
                    0.279241681098938,
                    0.279241681098938,
                    0.279241681098938,
                    1
                ],
                "roughnessFactor" : 0.47727271914482117
            }
        }
    ],
    "meshes" : [
        {
            "name" : "Plane.018",
            "primitives" : [
                {
                    "attributes" : {
                        "POSITION" : 0,
                        "NORMAL" : 1,
                        "TANGENT" : 2,
                        "TEXCOORD_0" : 3
                    },
                    "indices" : 4,
                    "material" : 0
                }
            ]
        },
        {
            "name" : "Cube.107",
            "primitives" : [
                {
                    "attributes" : {
                        "POSITION" : 5,
                        "NORMAL" : 6,
                        "TEXCOORD_0" : 7
                    },
                    "indices" : 8,
                    "material" : 1
                },
                {
                    "attributes" : {
                        "POSITION" : 9,
                        "NORMAL" : 10,
                        "TEXCOORD_0" : 11
                    },
                    "indices" : 12,
                    "material" : 0
                },
                {
                    "attributes" : {
                        "POSITION" : 13
                    },
                    "material" : 1,
                    "mode" : 0
                }
            ]
        }
    ],
    "textures" : [
        {
            "sampler" : 0,
            "source" : 0
        }
    ],
    "images" : [
        {
            "bufferView" : 9,
            "mimeType" : "image/jpeg",
            "name" : "metal_map"
        }
    ],
    "accessors" : [
        {
            "bufferView" : 0,
            "componentType" : 5126,
            "count" : 2400,
            "max" : [
                158.1403045654297,
                0.3799999952316284,
                1.2659859657287598
            ],
            "min" : [
                -1.0466666221618652,
                -283.0364685058594,
                -377.8968505859375
            ],
            "type" : "VEC3"
        },
        {
            "bufferView" : 1,
            "componentType" : 5126,
            "count" : 2400,
            "type" : "VEC3"
        },
        {
            "bufferView" : 2,
            "componentType" : 5126,
            "count" : 2400,
            "type" : "VEC4"
        },
        {
            "bufferView" : 3,
            "componentType" : 5126,
            "count" : 2400,
            "type" : "VEC2"
        },
        {
            "bufferView" : 4,
            "componentType" : 5123,
            "count" : 3600,
            "type" : "SCALAR"
        },
        {
            "bufferView" : 5,
            "componentType" : 5126,
            "count" : 1856,
            "max" : [
                4.5976104736328125,
                5.534393310546875,
                11.0684814453125
            ],
            "min" : [
                -5.0853271484375,
                -5.6783447265625,
                4.437744140625
            ],
            "type" : "VEC3"
        },
        {
            "bufferView" : 6,
            "componentType" : 5126,
            "count" : 1856,
            "type" : "VEC3"
        },
        {
            "bufferView" : 7,
            "componentType" : 5126,
            "count" : 1856,
            "type" : "VEC2"
        },
        {
            "bufferView" : 8,
            "componentType" : 5123,
            "count" : 3072,
            "type" : "SCALAR"
        },
        {
            "bufferView" : 10,
            "componentType" : 5126,
            "count" : 2301,
            "max" : [
                6.70843505859375,
                8.508331298828125,
                5.0404052734375
            ],
            "min" : [
                -6.7089691162109375,
                -6.79498291015625,
                -25.22149658203125
            ],
            "type" : "VEC3"
        },
        {
            "bufferView" : 11,
            "componentType" : 5126,
            "count" : 2301,
            "type" : "VEC3"
        },
        {
            "bufferView" : 12,
            "componentType" : 5126,
            "count" : 2301,
            "type" : "VEC2"
        },
        {
            "bufferView" : 13,
            "componentType" : 5123,
            "count" : 4110,
            "type" : "SCALAR"
        },
        {
            "bufferView" : 14,
            "componentType" : 5126,
            "count" : 1,
            "max" : [
                15.41748046875,
                10.651611328125,
                -36.377197265625
            ],
            "min" : [
                15.41748046875,
                10.651611328125,
                -36.377197265625
            ],
            "type" : "VEC3"
        }
    ],
    "bufferViews" : [
        {
            "buffer" : 0,
            "byteLength" : 28800,
            "byteOffset" : 0
        },
        {
            "buffer" : 0,
            "byteLength" : 28800,
            "byteOffset" : 28800
        },
        {
            "buffer" : 0,
            "byteLength" : 38400,
            "byteOffset" : 57600
        },
        {
            "buffer" : 0,
            "byteLength" : 19200,
            "byteOffset" : 96000
        },
        {
            "buffer" : 0,
            "byteLength" : 7200,
            "byteOffset" : 115200
        },
        {
            "buffer" : 0,
            "byteLength" : 22272,
            "byteOffset" : 122400
        },
        {
            "buffer" : 0,
            "byteLength" : 22272,
            "byteOffset" : 144672
        },
        {
            "buffer" : 0,
            "byteLength" : 14848,
            "byteOffset" : 166944
        },
        {
            "buffer" : 0,
            "byteLength" : 6144,
            "byteOffset" : 181792
        },
        {
            "buffer" : 0,
            "byteLength" : 8119,
            "byteOffset" : 187936
        },
        {
            "buffer" : 0,
            "byteLength" : 27612,
            "byteOffset" : 196056
        },
        {
            "buffer" : 0,
            "byteLength" : 27612,
            "byteOffset" : 223668
        },
        {
            "buffer" : 0,
            "byteLength" : 18408,
            "byteOffset" : 251280
        },
        {
            "buffer" : 0,
            "byteLength" : 8220,
            "byteOffset" : 269688
        },
        {
            "buffer" : 0,
            "byteLength" : 12,
            "byteOffset" : 277908
        }
    ],
    "samplers" : [
        {
            "magFilter" : 9729,
            "minFilter" : 9987
        }
    ],
    "buffers" : [
        {
            "byteLength" : 277920,
            "uri" : "data:application/octet-stream;base64,"
        }
    ]
}
