{
    "asset" : {
        "generator" : "Khronos glTF Blender I/O v1.6.16",
        "version" : "2.0"
    },
    "scene" : 0,
    "scenes" : [
        {
            "name" : "Scene",
            "nodes" : [
                3,
                4,
                5,
                6,
                7,
                8,
                9
            ]
        }
    ],
    "nodes" : [
        {
            "name" : "Bone",
            "rotation" : [
                -0.017683207988739014,
                0,
                0,
                0.9998436570167542
            ],
            "translation" : [
                0,
                5.627377049677307e-06,
                1.3160590242478065e-05
            ]
        },
        {
            "name" : "Bone.001",
            "translation" : [
                0,
                -2.6148836612701416,
                2.697700023651123
            ]
        },
        {
            "name" : "Bone.002",
            "translation" : [
                3.1812360286712646,
                -1.7000571489334106,
                0.7783927321434021
            ]
        },
        {
            "children" : [
                0,
                1,
                2
            ],
            "name" : "Armature",
            "scale" : [
                4.125346660614014,
                4.125346660614014,
                4.125346660614014
            ],
            "translation" : [
                136.6100616455078,
                682.217529296875,
                331.7803955078125
            ]
        },
        {
            "mesh" : 0,
            "name" : "Cylinder.016",
            "rotation" : [
                -0.5,
                0.5,
                -0.4999999701976776,
                0.5
            ],
            "scale" : [
                2.4519083499908447,
                2.4519083499908447,
                2.4519083499908447
            ],
            "translation" : [
                108.36241912841797,
                621.2013549804688,
                -229.75816345214844
            ]
        },
        {
            "mesh" : 1,
            "name" : "Cube.066",
            "scale" : [
                3.0145082473754883,
                3.0145082473754883,
                3.0145082473754883
            ],
            "translation" : [
                3.0628089904785156,
                581.3665771484375,
                -125.11676025390625
            ]
        },
        {
            "mesh" : 2,
            "name" : "Plane.019",
            "translation" : [
                1.3090624809265137,
                587.5800170898438,
                -131.46217346191406
            ]
        },
        {
            "mesh" : 3,
            "name" : "Plane.020",
            "translation" : [
                108.30654907226562,
                620.8731689453125,
                -236.22494506835938
            ]
        },
        {
            "mesh" : 4,
            "name" : "Plane.021",
            "scale" : [
                1.2482644319534302,
                1.2482644319534302,
                1.2482644319534302
            ],
            "translation" : [
                2.9419479370117188,
                585.4931030273438,
                -142.07345581054688
            ]
        },
        {
            "mesh" : 5,
            "name" : "Text.042",
            "rotation" : [
                -0.006484635174274445,
                0.9999763369560242,
                -0.00113162980414927,
                0.001991765573620796
            ],
            "scale" : [
                -1.055820345878601,
                -1.0558202266693115,
                -1.0558204650878906
            ],
            "translation" : [
                1.1765682697296143,
                588.4710693359375,
                -137.06532287597656
            ]
        }
    ],
    "materials" : [
        {
            "doubleSided" : true,
            "name" : "Material.012",
            "pbrMetallicRoughness" : {
                "baseColorFactor" : [
                    0,
                    0,
                    0,
                    1
                ],
                "metallicFactor" : 0,
                "roughnessFactor" : 0.6045454740524292
            }
        },
        {
            "doubleSided" : true,
            "name" : "Material.037",
            "pbrMetallicRoughness" : {
                "baseColorFactor" : [
                    0.020378511399030685,
                    0.020378511399030685,
                    0.020378511399030685,
                    1
                ],
                "metallicFactor" : 0,
                "roughnessFactor" : 0.5
            }
        },
        {
            "doubleSided" : true,
            "name" : "Material.038",
            "pbrMetallicRoughness" : {
                "baseColorFactor" : [
                    0.800000011920929,
                    0.800000011920929,
                    0.800000011920929,
                    1
                ],
                "metallicFactor" : 0,
                "roughnessFactor" : 0.5
            }
        },
        {
            "doubleSided" : true,
            "name" : "Material.023",
            "pbrMetallicRoughness" : {
                "baseColorFactor" : [
                    0.1282382309436798,
                    0.1282382309436798,
                    0.1282382309436798,
                    1
                ],
                "metallicFactor" : 0,
                "roughnessFactor" : 0.37155961990356445
            }
        },
        {
            "doubleSided" : true,
            "name" : "Material.039",
            "pbrMetallicRoughness" : {
                "baseColorFactor" : [
                    0,
                    0,
                    0,
                    1
                ],
                "metallicFactor" : 0,
                "roughnessFactor" : 0.5
            }
        }
    ],
    "meshes" : [
        {
            "name" : "Cylinder.013",
            "primitives" : [
                {
                    "attributes" : {
                        "POSITION" : 0,
                        "NORMAL" : 1,
                        "TEXCOORD_0" : 2
                    },
                    "indices" : 3,
                    "material" : 0
                }
            ]
        },
        {
            "name" : "Cube.064",
            "primitives" : [
                {
                    "attributes" : {
                        "POSITION" : 4,
                        "NORMAL" : 5,
                        "TEXCOORD_0" : 6
                    },
                    "indices" : 7,
                    "material" : 1
                },
                {
                    "attributes" : {
                        "POSITION" : 8,
                        "NORMAL" : 9,
                        "TEXCOORD_0" : 10
                    },
                    "indices" : 11,
                    "material" : 2
                }
            ]
        },
        {
            "name" : "Plane.014",
            "primitives" : [
                {
                    "attributes" : {
                        "POSITION" : 12,
                        "NORMAL" : 13,
                        "TEXCOORD_0" : 14
                    },
                    "indices" : 15,
                    "material" : 1
                }
            ]
        },
        {
            "name" : "Plane.020",
            "primitives" : [
                {
                    "attributes" : {
                        "POSITION" : 16,
                        "NORMAL" : 17,
                        "TANGENT" : 18,
                        "TEXCOORD_0" : 19
                    },
                    "indices" : 20,
                    "material" : 0
                }
            ]
        },
        {
            "name" : "Plane.016",
            "primitives" : [
                {
                    "attributes" : {
                        "POSITION" : 21,
                        "NORMAL" : 22,
                        "TEXCOORD_0" : 23
                    },
                    "indices" : 24,
                    "material" : 3
                }
            ]
        },
        {
            "name" : "Text.043",
            "primitives" : [
                {
                    "attributes" : {
                        "POSITION" : 25,
                        "NORMAL" : 26,
                        "TANGENT" : 27,
                        "TEXCOORD_0" : 28
                    },
                    "indices" : 29,
                    "material" : 4
                }
            ]
        }
    ],
    "accessors" : [
        {
            "bufferView" : 0,
            "componentType" : 5126,
            "count" : 388,
            "max" : [
                1,
                1.8237109184265137,
                1
            ],
            "min" : [
                -1,
                -1,
                -1
            ],
            "type" : "VEC3"
        },
        {
            "bufferView" : 1,
            "componentType" : 5126,
            "count" : 388,
            "type" : "VEC3"
        },
        {
            "bufferView" : 2,
            "componentType" : 5126,
            "count" : 388,
            "type" : "VEC2"
        },
        {
            "bufferView" : 3,
            "componentType" : 5123,
            "count" : 756,
            "type" : "SCALAR"
        },
        {
            "bufferView" : 4,
            "componentType" : 5126,
            "count" : 2094,
            "max" : [
                3.8907015323638916,
                2.435734987258911,
                2.3877179622650146
            ],
            "min" : [
                -3.8885438442230225,
                -0.23591309785842896,
                -5.2396368980407715
            ],
            "type" : "VEC3"
        },
        {
            "bufferView" : 5,
            "componentType" : 5126,
            "count" : 2094,
            "type" : "VEC3"
        },
        {
            "bufferView" : 6,
            "componentType" : 5126,
            "count" : 2094,
            "type" : "VEC2"
        },
        {
            "bufferView" : 7,
            "componentType" : 5123,
            "count" : 3552,
            "type" : "SCALAR"
        },
        {
            "bufferView" : 8,
            "componentType" : 5126,
            "count" : 12,
            "max" : [
                1.299723505973816,
                2.3970890045166016,
                -3.368218421936035
            ],
            "min" : [
                -1.1300889253616333,
                2.2348082065582275,
                -4.786086082458496
            ],
            "type" : "VEC3"
        },
        {
            "bufferView" : 9,
            "componentType" : 5126,
            "count" : 12,
            "type" : "VEC3"
        },
        {
            "bufferView" : 10,
            "componentType" : 5126,
            "count" : 12,
            "type" : "VEC2"
        },
        {
            "bufferView" : 11,
            "componentType" : 5123,
            "count" : 18,
            "type" : "SCALAR"
        },
        {
            "bufferView" : 12,
            "componentType" : 5126,
            "count" : 796,
            "max" : [
                7.135708808898926,
                0.3428163528442383,
                10.914091110229492
            ],
            "min" : [
                -3.2500672340393066,
                -2.25673770904541,
                -1
            ],
            "type" : "VEC3"
        },
        {
            "bufferView" : 13,
            "componentType" : 5126,
            "count" : 796,
            "type" : "VEC3"
        },
        {
            "bufferView" : 14,
            "componentType" : 5126,
            "count" : 796,
            "type" : "VEC2"
        },
        {
            "bufferView" : 15,
            "componentType" : 5123,
            "count" : 1356,
            "type" : "SCALAR"
        },
        {
            "bufferView" : 16,
            "componentType" : 5126,
            "count" : 5662,
            "max" : [
                0.4702054262161255,
                0.4499998986721039,
                92.46113586425781
            ],
            "min" : [
                -105.90611267089844,
                -40.448001861572266,
                -3.8485469818115234
            ],
            "type" : "VEC3"
        },
        {
            "bufferView" : 17,
            "componentType" : 5126,
            "count" : 5662,
            "type" : "VEC3"
        },
        {
            "bufferView" : 18,
            "componentType" : 5126,
            "count" : 5662,
            "type" : "VEC4"
        },
        {
            "bufferView" : 19,
            "componentType" : 5126,
            "count" : 5662,
            "type" : "VEC2"
        },
        {
            "bufferView" : 20,
            "componentType" : 5123,
            "count" : 8496,
            "type" : "SCALAR"
        },
        {
            "bufferView" : 21,
            "componentType" : 5126,
            "count" : 603,
            "max" : [
                1.9627838134765625,
                1.0574264526367188,
                1.6050262451171875
            ],
            "min" : [
                -1.96295166015625,
                -1.0574493408203125,
                -1.8174057006835938
            ],
            "type" : "VEC3"
        },
        {
            "bufferView" : 22,
            "componentType" : 5126,
            "count" : 603,
            "type" : "VEC3"
        },
        {
            "bufferView" : 23,
            "componentType" : 5126,
            "count" : 603,
            "type" : "VEC2"
        },
        {
            "bufferView" : 24,
            "componentType" : 5123,
            "count" : 1164,
            "type" : "SCALAR"
        },
        {
            "bufferView" : 25,
            "componentType" : 5126,
            "count" : 5972,
            "max" : [
                3.9853031635284424,
                0.03999999910593033,
                0.049075011163949966
            ],
            "min" : [
                0.03500000387430191,
                -0.03999999910593033,
                -0.7310730814933777
            ],
            "type" : "VEC3"
        },
        {
            "bufferView" : 26,
            "componentType" : 5126,
            "count" : 5972,
            "type" : "VEC3"
        },
        {
            "bufferView" : 27,
            "componentType" : 5126,
            "count" : 5972,
            "type" : "VEC4"
        },
        {
            "bufferView" : 28,
            "componentType" : 5126,
            "count" : 5972,
            "type" : "VEC2"
        },
        {
            "bufferView" : 29,
            "componentType" : 5123,
            "count" : 24606,
            "type" : "SCALAR"
        }
    ],
    "bufferViews" : [
        {
            "buffer" : 0,
            "byteLength" : 4656,
            "byteOffset" : 0
        },
        {
            "buffer" : 0,
            "byteLength" : 4656,
            "byteOffset" : 4656
        },
        {
            "buffer" : 0,
            "byteLength" : 3104,
            "byteOffset" : 9312
        },
        {
            "buffer" : 0,
            "byteLength" : 1512,
            "byteOffset" : 12416
        },
        {
            "buffer" : 0,
            "byteLength" : 25128,
            "byteOffset" : 13928
        },
        {
            "buffer" : 0,
            "byteLength" : 25128,
            "byteOffset" : 39056
        },
        {
            "buffer" : 0,
            "byteLength" : 16752,
            "byteOffset" : 64184
        },
        {
            "buffer" : 0,
            "byteLength" : 7104,
            "byteOffset" : 80936
        },
        {
            "buffer" : 0,
            "byteLength" : 144,
            "byteOffset" : 88040
        },
        {
            "buffer" : 0,
            "byteLength" : 144,
            "byteOffset" : 88184
        },
        {
            "buffer" : 0,
            "byteLength" : 96,
            "byteOffset" : 88328
        },
        {
            "buffer" : 0,
            "byteLength" : 36,
            "byteOffset" : 88424
        },
        {
            "buffer" : 0,
            "byteLength" : 9552,
            "byteOffset" : 88460
        },
        {
            "buffer" : 0,
            "byteLength" : 9552,
            "byteOffset" : 98012
        },
        {
            "buffer" : 0,
            "byteLength" : 6368,
            "byteOffset" : 107564
        },
        {
            "buffer" : 0,
            "byteLength" : 2712,
            "byteOffset" : 113932
        },
        {
            "buffer" : 0,
            "byteLength" : 67944,
            "byteOffset" : 116644
        },
        {
            "buffer" : 0,
            "byteLength" : 67944,
            "byteOffset" : 184588
        },
        {
            "buffer" : 0,
            "byteLength" : 90592,
            "byteOffset" : 252532
        },
        {
            "buffer" : 0,
            "byteLength" : 45296,
            "byteOffset" : 343124
        },
        {
            "buffer" : 0,
            "byteLength" : 16992,
            "byteOffset" : 388420
        },
        {
            "buffer" : 0,
            "byteLength" : 7236,
            "byteOffset" : 405412
        },
        {
            "buffer" : 0,
            "byteLength" : 7236,
            "byteOffset" : 412648
        },
        {
            "buffer" : 0,
            "byteLength" : 4824,
            "byteOffset" : 419884
        },
        {
            "buffer" : 0,
            "byteLength" : 2328,
            "byteOffset" : 424708
        },
        {
            "buffer" : 0,
            "byteLength" : 71664,
            "byteOffset" : 427036
        },
        {
            "buffer" : 0,
            "byteLength" : 71664,
            "byteOffset" : 498700
        },
        {
            "buffer" : 0,
            "byteLength" : 95552,
            "byteOffset" : 570364
        },
        {
            "buffer" : 0,
            "byteLength" : 47776,
            "byteOffset" : 665916
        },
        {
            "buffer" : 0,
            "byteLength" : 49212,
            "byteOffset" : 713692
        }
    ],
    "buffers" : [
        {
            "byteLength" : 762904,
            "uri" : "data:application/octet-stream;base64,"
        }
    ]
}
