{
    "asset" : {
        "generator" : "Khronos glTF Blender I/O v1.6.16",
        "version" : "2.0"
    },
    "scene" : 0,
    "scenes" : [
        {
            "name" : "Scene",
            "nodes" : [
                3,
                4,
                5
            ]
        }
    ],
    "nodes" : [
        {
            "name" : "Bone",
            "rotation" : [
                -0.017683207988739014,
                0,
                0,
                0.9998436570167542
            ],
            "translation" : [
                0,
                5.627377049677307e-06,
                1.3160590242478065e-05
            ]
        },
        {
            "name" : "Bone.001",
            "translation" : [
                0,
                -2.6148836612701416,
                2.697700023651123
            ]
        },
        {
            "name" : "Bone.002",
            "translation" : [
                3.1812360286712646,
                -1.7000571489334106,
                0.7783927321434021
            ]
        },
        {
            "children" : [
                0,
                1,
                2
            ],
            "name" : "Armature",
            "scale" : [
                4.125346660614014,
                4.125346660614014,
                4.125346660614014
            ],
            "translation" : [
                136.6100616455078,
                682.217529296875,
                331.7803955078125
            ]
        },
        {
            "mesh" : 0,
            "name" : "Plane.014",
            "translation" : [
                154.47518920898438,
                657.48095703125,
                211.61703491210938
            ]
        },
        {
            "mesh" : 1,
            "name" : "Conectorpaciente.001",
            "rotation" : [
                0,
                -1,
                0,
                4.371138828673793e-08
            ],
            "scale" : [
                -2.9042489528656006,
                -0.8830108642578125,
                2.420403242111206
            ],
            "translation" : [
                154.6241912841797,
                657.522216796875,
                222.98822021484375
            ]
        }
    ],
    "animations" : [
        {
            "channels" : [
                {
                    "sampler" : 0,
                    "target" : {
                        "node" : 5,
                        "path" : "translation"
                    }
                }
            ],
            "name" : "ConectorpacienteAction",
            "samplers" : [
                {
                    "input" : 10,
                    "interpolation" : "LINEAR",
                    "output" : 11
                }
            ]
        }
    ],
    "materials" : [
        {
            "doubleSided" : true,
            "name" : "Plastico_Puerta",
            "pbrMetallicRoughness" : {
                "baseColorFactor" : [
                    0,
                    0,
                    0,
                    1
                ],
                "roughnessFactor" : 0.8090909123420715
            }
        },
        {
            "doubleSided" : true,
            "name" : "Material.033",
            "pbrMetallicRoughness" : {
                "baseColorFactor" : [
                    0.050984419882297516,
                    0.050984419882297516,
                    0.050984419882297516,
                    1
                ],
                "metallicFactor" : 0,
                "roughnessFactor" : 0.5
            }
        }
    ],
    "meshes" : [
        {
            "name" : "Plane.014",
            "primitives" : [
                {
                    "attributes" : {
                        "POSITION" : 0,
                        "NORMAL" : 1,
                        "TANGENT" : 2,
                        "TEXCOORD_0" : 3
                    },
                    "indices" : 4,
                    "material" : 0
                }
            ]
        },
        {
            "name" : "Cubo.004",
            "primitives" : [
                {
                    "attributes" : {
                        "POSITION" : 5,
                        "NORMAL" : 6,
                        "TANGENT" : 7,
                        "TEXCOORD_0" : 8
                    },
                    "indices" : 9,
                    "material" : 1
                }
            ]
        }
    ],
    "accessors" : [
        {
            "bufferView" : 0,
            "componentType" : 5126,
            "count" : 2752,
            "max" : [
                0.30765071511268616,
                0.3746987581253052,
                6.918124198913574
            ],
            "min" : [
                -93.20223999023438,
                -75.80081176757812,
                -189.7452392578125
            ],
            "type" : "VEC3"
        },
        {
            "bufferView" : 1,
            "componentType" : 5126,
            "count" : 2752,
            "type" : "VEC3"
        },
        {
            "bufferView" : 2,
            "componentType" : 5126,
            "count" : 2752,
            "type" : "VEC4"
        },
        {
            "bufferView" : 3,
            "componentType" : 5126,
            "count" : 2752,
            "type" : "VEC2"
        },
        {
            "bufferView" : 4,
            "componentType" : 5123,
            "count" : 4128,
            "type" : "SCALAR"
        },
        {
            "bufferView" : 5,
            "componentType" : 5126,
            "count" : 1147,
            "max" : [
                0.9999980926513672,
                1,
                4.231905460357666
            ],
            "min" : [
                -1.0000019073486328,
                -1,
                -0.9999923706054688
            ],
            "type" : "VEC3"
        },
        {
            "bufferView" : 6,
            "componentType" : 5126,
            "count" : 1147,
            "type" : "VEC3"
        },
        {
            "bufferView" : 7,
            "componentType" : 5126,
            "count" : 1147,
            "type" : "VEC4"
        },
        {
            "bufferView" : 8,
            "componentType" : 5126,
            "count" : 1147,
            "type" : "VEC2"
        },
        {
            "bufferView" : 9,
            "componentType" : 5123,
            "count" : 1272,
            "type" : "SCALAR"
        },
        {
            "bufferView" : 10,
            "componentType" : 5126,
            "count" : 81,
            "max" : [
                3.3333333333333335
            ],
            "min" : [
                0
            ],
            "type" : "SCALAR"
        },
        {
            "bufferView" : 11,
            "componentType" : 5126,
            "count" : 81,
            "type" : "VEC3"
        }
    ],
    "bufferViews" : [
        {
            "buffer" : 0,
            "byteLength" : 33024,
            "byteOffset" : 0
        },
        {
            "buffer" : 0,
            "byteLength" : 33024,
            "byteOffset" : 33024
        },
        {
            "buffer" : 0,
            "byteLength" : 44032,
            "byteOffset" : 66048
        },
        {
            "buffer" : 0,
            "byteLength" : 22016,
            "byteOffset" : 110080
        },
        {
            "buffer" : 0,
            "byteLength" : 8256,
            "byteOffset" : 132096
        },
        {
            "buffer" : 0,
            "byteLength" : 13764,
            "byteOffset" : 140352
        },
        {
            "buffer" : 0,
            "byteLength" : 13764,
            "byteOffset" : 154116
        },
        {
            "buffer" : 0,
            "byteLength" : 18352,
            "byteOffset" : 167880
        },
        {
            "buffer" : 0,
            "byteLength" : 9176,
            "byteOffset" : 186232
        },
        {
            "buffer" : 0,
            "byteLength" : 2544,
            "byteOffset" : 195408
        },
        {
            "buffer" : 0,
            "byteLength" : 324,
            "byteOffset" : 197952
        },
        {
            "buffer" : 0,
            "byteLength" : 972,
            "byteOffset" : 198276
        }
    ],
    "buffers" : [
        {
            "byteLength" : 199248,
            "uri" : "data:application/octet-stream;base64,"
        }
    ]
}
