{
    "asset" : {
        "generator" : "Khronos glTF Blender I/O v1.6.16",
        "version" : "2.0"
    },
    "scene" : 0,
    "scenes" : [
        {
            "name" : "Scene",
            "nodes" : [
                3,
                4
            ]
        }
    ],
    "nodes" : [
        {
            "name" : "Bone",
            "rotation" : [
                -0.017683207988739014,
                0,
                0,
                0.9998436570167542
            ],
            "translation" : [
                0,
                5.627377049677307e-06,
                1.3160590242478065e-05
            ]
        },
        {
            "name" : "Bone.001",
            "translation" : [
                0,
                -2.6148836612701416,
                2.697700023651123
            ]
        },
        {
            "name" : "Bone.002",
            "translation" : [
                3.1812360286712646,
                -1.7000571489334106,
                0.7783927321434021
            ]
        },
        {
            "children" : [
                0,
                1,
                2
            ],
            "name" : "Armature",
            "scale" : [
                4.125346660614014,
                4.125346660614014,
                4.125346660614014
            ],
            "translation" : [
                136.6100616455078,
                682.217529296875,
                331.7803955078125
            ]
        },
        {
            "mesh" : 0,
            "name" : "Cube.041",
            "rotation" : [
                0,
                0,
                -0.7071067094802856,
                0.7071068286895752
            ],
            "translation" : [
                146.4356689453125,
                424.1629333496094,
                707.97412109375
            ]
        }
    ],
    "animations" : [
        {
            "channels" : [
                {
                    "sampler" : 0,
                    "target" : {
                        "node" : 4,
                        "path" : "translation"
                    }
                }
            ],
            "name" : "Cube.041Action",
            "samplers" : [
                {
                    "input" : 9,
                    "interpolation" : "LINEAR",
                    "output" : 10
                }
            ]
        }
    ],
    "materials" : [
        {
            "doubleSided" : true,
            "name" : "Material_metal_entorno",
            "normalTexture" : {
                "index" : 0,
                "scale" : 0.19999998807907104
            },
            "pbrMetallicRoughness" : {
                "baseColorFactor" : [
                    0.279241681098938,
                    0.279241681098938,
                    0.279241681098938,
                    1
                ],
                "roughnessFactor" : 0.47727271914482117
            }
        },
        {
            "doubleSided" : true,
            "name" : "Material.012",
            "pbrMetallicRoughness" : {
                "baseColorFactor" : [
                    0,
                    0,
                    0,
                    1
                ],
                "metallicFactor" : 0,
                "roughnessFactor" : 0.6045454740524292
            }
        }
    ],
    "meshes" : [
        {
            "name" : "Cube.068",
            "primitives" : [
                {
                    "attributes" : {
                        "POSITION" : 0,
                        "NORMAL" : 1,
                        "TEXCOORD_0" : 2
                    },
                    "indices" : 3,
                    "material" : 0
                },
                {
                    "attributes" : {
                        "POSITION" : 4,
                        "NORMAL" : 5,
                        "TEXCOORD_0" : 6
                    },
                    "indices" : 7,
                    "material" : 1
                },
                {
                    "attributes" : {
                        "POSITION" : 8
                    },
                    "material" : 0,
                    "mode" : 0
                }
            ]
        }
    ],
    "textures" : [
        {
            "sampler" : 0,
            "source" : 0
        }
    ],
    "images" : [
        {
            "bufferView" : 4,
            "mimeType" : "image/jpeg",
            "name" : "metal_map"
        }
    ],
    "accessors" : [
        {
            "bufferView" : 0,
            "componentType" : 5126,
            "count" : 1856,
            "max" : [
                4.5976104736328125,
                5.534393310546875,
                11.0684814453125
            ],
            "min" : [
                -5.0853271484375,
                -5.6783447265625,
                4.437744140625
            ],
            "type" : "VEC3"
        },
        {
            "bufferView" : 1,
            "componentType" : 5126,
            "count" : 1856,
            "type" : "VEC3"
        },
        {
            "bufferView" : 2,
            "componentType" : 5126,
            "count" : 1856,
            "type" : "VEC2"
        },
        {
            "bufferView" : 3,
            "componentType" : 5123,
            "count" : 3072,
            "type" : "SCALAR"
        },
        {
            "bufferView" : 5,
            "componentType" : 5126,
            "count" : 2301,
            "max" : [
                6.70843505859375,
                8.508331298828125,
                5.0404052734375
            ],
            "min" : [
                -6.7089691162109375,
                -6.79498291015625,
                -25.22149658203125
            ],
            "type" : "VEC3"
        },
        {
            "bufferView" : 6,
            "componentType" : 5126,
            "count" : 2301,
            "type" : "VEC3"
        },
        {
            "bufferView" : 7,
            "componentType" : 5126,
            "count" : 2301,
            "type" : "VEC2"
        },
        {
            "bufferView" : 8,
            "componentType" : 5123,
            "count" : 4110,
            "type" : "SCALAR"
        },
        {
            "bufferView" : 9,
            "componentType" : 5126,
            "count" : 1,
            "max" : [
                15.41748046875,
                10.651611328125,
                -36.377197265625
            ],
            "min" : [
                15.41748046875,
                10.651611328125,
                -36.377197265625
            ],
            "type" : "VEC3"
        },
        {
            "bufferView" : 10,
            "componentType" : 5126,
            "count" : 226,
            "max" : [
                9.375
            ],
            "min" : [
                0
            ],
            "type" : "SCALAR"
        },
        {
            "bufferView" : 11,
            "componentType" : 5126,
            "count" : 226,
            "type" : "VEC3"
        }
    ],
    "bufferViews" : [
        {
            "buffer" : 0,
            "byteLength" : 22272,
            "byteOffset" : 0
        },
        {
            "buffer" : 0,
            "byteLength" : 22272,
            "byteOffset" : 22272
        },
        {
            "buffer" : 0,
            "byteLength" : 14848,
            "byteOffset" : 44544
        },
        {
            "buffer" : 0,
            "byteLength" : 6144,
            "byteOffset" : 59392
        },
        {
            "buffer" : 0,
            "byteLength" : 8119,
            "byteOffset" : 65536
        },
        {
            "buffer" : 0,
            "byteLength" : 27612,
            "byteOffset" : 73656
        },
        {
            "buffer" : 0,
            "byteLength" : 27612,
            "byteOffset" : 101268
        },
        {
            "buffer" : 0,
            "byteLength" : 18408,
            "byteOffset" : 128880
        },
        {
            "buffer" : 0,
            "byteLength" : 8220,
            "byteOffset" : 147288
        },
        {
            "buffer" : 0,
            "byteLength" : 12,
            "byteOffset" : 155508
        },
        {
            "buffer" : 0,
            "byteLength" : 904,
            "byteOffset" : 155520
        },
        {
            "buffer" : 0,
            "byteLength" : 2712,
            "byteOffset" : 156424
        }
    ],
    "samplers" : [
        {
            "magFilter" : 9729,
            "minFilter" : 9987
        }
    ],
    "buffers" : [
        {
            "byteLength" : 159136,
            "uri" : "data:application/octet-stream;base64,"
        }
    ]
}
