{
    "asset" : {
        "generator" : "Khronos glTF Blender I/O v1.6.16",
        "version" : "2.0"
    },
    "scene" : 0,
    "scenes" : [
        {
            "name" : "Scene",
            "nodes" : [
                0,
                1
            ]
        }
    ],
    "nodes" : [
        {
            "mesh" : 0,
            "name" : "enchufe",
            "scale" : [
                31.865272521972656,
                19.33985710144043,
                4.476839065551758
            ],
            "translation" : [
                -173.58734130859375,
                423.04205322265625,
                720.6292114257812
            ]
        },
        {
            "mesh" : 1,
            "name" : "Cube.041",
            "translation" : [
                0,
                0,
                38.239498138427734
            ]
        }
    ],
    "animations" : [
        {
            "channels" : [
                {
                    "sampler" : 0,
                    "target" : {
                        "node" : 1,
                        "path" : "translation"
                    }
                }
            ],
            "name" : "Cube.041Action",
            "samplers" : [
                {
                    "input" : 13,
                    "interpolation" : "LINEAR",
                    "output" : 14
                }
            ]
        }
    ],
    "materials" : [
        {
            "doubleSided" : true,
            "name" : "Material_plastico.001",
            "pbrMetallicRoughness" : {}
        },
        {
            "doubleSided" : true,
            "name" : "Material_metal_entorno",
            "normalTexture" : {
                "index" : 0,
                "scale" : 0.19999998807907104
            },
            "pbrMetallicRoughness" : {
                "baseColorFactor" : [
                    0.279241681098938,
                    0.279241681098938,
                    0.279241681098938,
                    1
                ],
                "roughnessFactor" : 0.47727271914482117
            }
        },
        {
            "doubleSided" : true,
            "name" : "Material.012",
            "pbrMetallicRoughness" : {
                "baseColorFactor" : [
                    0,
                    0,
                    0,
                    1
                ],
                "metallicFactor" : 0,
                "roughnessFactor" : 0.6045454740524292
            }
        }
    ],
    "meshes" : [
        {
            "name" : "Cube.064",
            "primitives" : [
                {
                    "attributes" : {
                        "POSITION" : 0,
                        "NORMAL" : 1,
                        "TEXCOORD_0" : 2
                    },
                    "indices" : 3,
                    "material" : 0
                }
            ]
        },
        {
            "name" : "Cube.068",
            "primitives" : [
                {
                    "attributes" : {
                        "POSITION" : 4,
                        "NORMAL" : 5,
                        "TEXCOORD_0" : 6
                    },
                    "indices" : 7,
                    "material" : 1
                },
                {
                    "attributes" : {
                        "POSITION" : 8,
                        "NORMAL" : 9,
                        "TEXCOORD_0" : 10
                    },
                    "indices" : 11,
                    "material" : 2
                },
                {
                    "attributes" : {
                        "POSITION" : 12
                    },
                    "material" : 1,
                    "mode" : 0
                }
            ]
        }
    ],
    "textures" : [
        {
            "sampler" : 0,
            "source" : 0
        }
    ],
    "images" : [
        {
            "bufferView" : 8,
            "mimeType" : "image/jpeg",
            "name" : "metal_map"
        }
    ],
    "accessors" : [
        {
            "bufferView" : 0,
            "componentType" : 5126,
            "count" : 2963,
            "max" : [
                1.0301048755645752,
                1.0301048755645752,
                -0.17067290842533112
            ],
            "min" : [
                -1.0301048755645752,
                -1.0301048755645752,
                -1.0137608051300049
            ],
            "type" : "VEC3"
        },
        {
            "bufferView" : 1,
            "componentType" : 5126,
            "count" : 2963,
            "type" : "VEC3"
        },
        {
            "bufferView" : 2,
            "componentType" : 5126,
            "count" : 2963,
            "type" : "VEC2"
        },
        {
            "bufferView" : 3,
            "componentType" : 5123,
            "count" : 5238,
            "type" : "SCALAR"
        },
        {
            "bufferView" : 4,
            "componentType" : 5126,
            "count" : 1856,
            "max" : [
                -180.47293090820312,
                428.1004943847656,
                683.9406127929688
            ],
            "min" : [
                -190.15586853027344,
                416.88775634765625,
                677.3098754882812
            ],
            "type" : "VEC3"
        },
        {
            "bufferView" : 5,
            "componentType" : 5126,
            "count" : 1856,
            "type" : "VEC3"
        },
        {
            "bufferView" : 6,
            "componentType" : 5126,
            "count" : 1856,
            "type" : "VEC2"
        },
        {
            "bufferView" : 7,
            "componentType" : 5123,
            "count" : 3072,
            "type" : "SCALAR"
        },
        {
            "bufferView" : 9,
            "componentType" : 5126,
            "count" : 2301,
            "max" : [
                -178.3621063232422,
                431.0744323730469,
                677.9125366210938
            ],
            "min" : [
                -191.77951049804688,
                415.7711181640625,
                647.650634765625
            ],
            "type" : "VEC3"
        },
        {
            "bufferView" : 10,
            "componentType" : 5126,
            "count" : 2301,
            "type" : "VEC3"
        },
        {
            "bufferView" : 11,
            "componentType" : 5126,
            "count" : 2301,
            "type" : "VEC2"
        },
        {
            "bufferView" : 12,
            "componentType" : 5123,
            "count" : 4110,
            "type" : "SCALAR"
        },
        {
            "bufferView" : 13,
            "componentType" : 5126,
            "count" : 1,
            "max" : [
                -169.65306091308594,
                433.21771240234375,
                636.4949340820312
            ],
            "min" : [
                -169.65306091308594,
                433.21771240234375,
                636.4949340820312
            ],
            "type" : "VEC3"
        },
        {
            "bufferView" : 14,
            "componentType" : 5126,
            "count" : 46,
            "max" : [
                1.875
            ],
            "min" : [
                0
            ],
            "type" : "SCALAR"
        },
        {
            "bufferView" : 15,
            "componentType" : 5126,
            "count" : 46,
            "type" : "VEC3"
        }
    ],
    "bufferViews" : [
        {
            "buffer" : 0,
            "byteLength" : 35556,
            "byteOffset" : 0
        },
        {
            "buffer" : 0,
            "byteLength" : 35556,
            "byteOffset" : 35556
        },
        {
            "buffer" : 0,
            "byteLength" : 23704,
            "byteOffset" : 71112
        },
        {
            "buffer" : 0,
            "byteLength" : 10476,
            "byteOffset" : 94816
        },
        {
            "buffer" : 0,
            "byteLength" : 22272,
            "byteOffset" : 105292
        },
        {
            "buffer" : 0,
            "byteLength" : 22272,
            "byteOffset" : 127564
        },
        {
            "buffer" : 0,
            "byteLength" : 14848,
            "byteOffset" : 149836
        },
        {
            "buffer" : 0,
            "byteLength" : 6144,
            "byteOffset" : 164684
        },
        {
            "buffer" : 0,
            "byteLength" : 8119,
            "byteOffset" : 170828
        },
        {
            "buffer" : 0,
            "byteLength" : 27612,
            "byteOffset" : 178948
        },
        {
            "buffer" : 0,
            "byteLength" : 27612,
            "byteOffset" : 206560
        },
        {
            "buffer" : 0,
            "byteLength" : 18408,
            "byteOffset" : 234172
        },
        {
            "buffer" : 0,
            "byteLength" : 8220,
            "byteOffset" : 252580
        },
        {
            "buffer" : 0,
            "byteLength" : 12,
            "byteOffset" : 260800
        },
        {
            "buffer" : 0,
            "byteLength" : 184,
            "byteOffset" : 260812
        },
        {
            "buffer" : 0,
            "byteLength" : 552,
            "byteOffset" : 260996
        }
    ],
    "samplers" : [
        {
            "magFilter" : 9729,
            "minFilter" : 9987
        }
    ],
    "buffers" : [
        {
            "byteLength" : 261548,
            "uri" : "data:application/octet-stream;base64,"
        }
    ]
}
